<?xml version="1.0" encoding="utf-8"?>
<svg viewBox="0 0 640 175" version="1.1" xmlns="http://www.w3.org/2000/svg">
<defs>
<pattern x="0" y="0" width="25" height="25" patternUnits="userSpaceOnUse" viewBox="0 0 100 100" patternTransform="matrix(-0.053636, 0.155565, -0.150254, -0.051805, 71.069206, 93.670044)" id="pattern-0">
<rect width="15.358" height="154.244" style="fill: #888;" transform="matrix(0.707107, -0.707107, 0.707107, 0.707107, -9.963383, 0.896367)"/>
<rect width="15.358" height="154.244" style="fill: #888;" transform="matrix(0.707107, -0.707107, 0.707107, 0.707107, -60, 50.859749)"/>
<rect width="15.358" height="154.244" style="fill: #888;" transform="matrix(0.707107, -0.707107, 0.707107, 0.707107, 40, -49.140251)"/>
</pattern>
</defs>
<circle style="stroke: #888; fill: none;" cx="33.319" cy="43.938" r="6.125"/>
<circle style="stroke: #888; fill: none;" cx="49.169" cy="43.938" r="6.125"/>
<path d="M 71.146 43.938 C 71.146 45.648 70.444 47.196 69.313 48.308 C 65.866 46.273 62.473 46.002 59.674 46.929 C 59.178 46.044 58.896 45.023 58.896 43.938 C 58.896 40.554 61.639 37.812 65.021 37.812 C 68.404 37.812 71.146 40.554 71.146 43.938 Z" style="stroke: #888; fill: none;"/>
<circle style="stroke: #888; fill: none;" cx="80.873" cy="43.938" r="6.125"/>
<circle style="stroke: #888; fill: none;" cx="33.319" cy="60.721" r="6.125"/>
<path d="M 49.169 66.846 C 45.787 66.846 43.044 64.104 43.044 60.721 C 43.044 57.338 45.787 54.596 49.169 54.596 C 50.571 54.596 51.863 55.067 52.895 55.858 C 52.743 58.146 53.301 60.66 54.782 63.179 C 53.835 65.338 51.679 66.846 49.169 66.846 Z" style="stroke: #888; fill: none;"/>
<path d="M 65.021 83.63 C 61.639 83.63 58.896 80.888 58.896 77.505 C 58.896 75.258 60.105 73.294 61.91 72.228 C 64.553 75.313 67.904 78.844 70.455 80.336 C 69.431 82.294 67.383 83.63 65.021 83.63 Z" style="stroke: #888; fill: none;"/>
<path d="M 86.998 60.721 C 86.998 61.605 86.81 62.445 86.473 63.204 C 83.755 60.871 80.401 57.906 77.696 55.483 C 78.623 54.92 79.71 54.596 80.873 54.596 C 84.255 54.596 86.998 57.338 86.998 60.721 Z" style="stroke: #888; fill: none;"/>
<circle style="stroke: #888; fill: none;" cx="33.319" cy="77.505" r="6.125"/>
<circle style="stroke: #888; fill: none;" cx="49.169" cy="77.505" r="6.125"/>
<g transform="matrix(0.932436, 0, 0, 0.932436, -351.907288, -268.612427)">
<rect x="404.639" y="397.362" width="8" height="8" rx="2" ry="2" style="fill: none; stroke: #888;"/>
<rect x="414.639" y="397.362" width="8" height="8" rx="2" ry="2" style="fill: none; stroke: #888;"/>
<rect x="424.639" y="397.362" width="8" height="8" rx="2" ry="2" style="fill: none; stroke: #888;"/>
<rect x="434.639" y="397.362" width="8" height="8" rx="2" ry="2" style="fill: none; stroke: #888;"/>
<rect x="444.639" y="397.362" width="8" height="8" rx="2" ry="2" style="fill: none; stroke: #888;"/>
<rect x="454.639" y="397.362" width="8" height="8" rx="2" ry="2" style="fill: none; stroke: #888;"/>
<path d="M 464.639 403.362 L 464.639 399.362 C 464.639 399.242 464.65 399.124 464.67 399.01 C 465.019 400.856 465.706 403.037 466.628 405.362 C 465.528 405.356 464.639 404.463 464.639 403.362 Z" style="fill: none; stroke: #888;"/>
<rect x="409.639" y="408.362" width="8" height="8" rx="2" ry="2" style="fill: none; stroke: #888;"/>
<rect x="419.639" y="408.362" width="8" height="8" rx="2" ry="2" style="fill: none; stroke: #888;"/>
<rect x="429.639" y="408.362" width="8" height="8" rx="2" ry="2" style="fill: none; stroke: #888;"/>
<rect x="439.639" y="408.362" width="8" height="8" rx="2" ry="2" style="fill: none; stroke: #888;"/>
<rect x="449.639" y="408.362" width="8" height="8" rx="2" ry="2" style="fill: none; stroke: #888;"/>
<rect x="459.639" y="408.362" width="8" height="8" rx="2" ry="2" style="fill: none; stroke: #888;"/>
<rect x="404.639" y="419.362" width="8" height="8" rx="2" ry="2" style="fill: none; stroke: #888;"/>
<rect x="414.639" y="419.362" width="8" height="8" rx="2" ry="2" style="fill: none; stroke: #888;"/>
<rect x="424.639" y="419.362" width="8" height="8" rx="2" ry="2" style="fill: none; stroke: #888;"/>
<rect x="434.639" y="419.362" width="8" height="8" rx="2" ry="2" style="fill: none; stroke: #888;"/>
<rect x="444.639" y="419.362" width="8" height="8" rx="2" ry="2" style="fill: none; stroke: #888;"/>
<rect x="454.639" y="419.362" width="8" height="8" rx="2" ry="2" style="fill: none; stroke: #888;"/>
<rect x="464.639" y="419.362" width="8" height="8" rx="2" ry="2" style="fill: none; stroke: #888;"/>
<rect x="404.639" y="430.362" width="8" height="8" rx="2" ry="2" style="fill: none; stroke: #888;"/>
<rect x="414.639" y="430.362" width="8" height="8" rx="2" ry="2" style="fill: none; stroke: #888;"/>
<rect x="424.639" y="430.362" width="27" height="8" rx="2" ry="2" style="fill: none; stroke: #888;"/>
<rect x="454.639" y="430.362" width="8" height="8" rx="2" ry="2" style="fill: none; stroke: #888;"/>
<rect x="464.639" y="430.362" width="8" height="8" rx="2" ry="2" style="fill: none; stroke: #888;"/>
</g>
<path d="M 96.627 129.693 C 90.286 125.399 80.679 107.353 81.142 100.697 C 81.599 94.179 72.404 86.378 73.353 80.836 C 69.899 83.103 58.076 67.61 57.599 66.805 C 45.115 54.083 59.863 38.546 72.806 50.998 C 72.741 51.09 85.937 62.957 90.165 66.279 C 94.479 70.352 96.772 76.083 103.584 81.151 M 80.156 74.635 C 81.475 72.291 86.344 68.92 88.935 68.272 M 65.741 63.09 C 64.595 63.191 61.012 62.025 59.031 60.365 C 49.599 51.855 59.593 41.211 69.208 49.978 L 74.852 55.098 C 75.159 56.837 67.887 62.858 65.741 63.09 Z M 67.932 61.769 C 64.433 58.253 71.145 51.591 74.773 55.231" style="stroke: #888; fill: none;"/>
<line style="stroke: #888; stroke-width: 2px;" x1="57.042" y1="30.037" x2="57.148" y2="21.694"/>
<path style="fill: #888;" d="M 26.702 10.651 C 23.218 10.651 20.379 13.49 20.379 16.973 L 20.379 147.93 C 20.379 151.413 23.218 154.252 26.702 154.252 L 87.49 154.252 C 90.972 154.252 93.811 151.413 93.811 147.93 L 93.811 127.2 L 92.356 125.857 L 92.356 147.93 C 92.356 150.627 90.186 152.797 87.49 152.797 L 26.702 152.797 C 24.004 152.797 21.833 150.627 21.833 147.93 L 21.833 16.973 C 21.833 14.276 24.004 12.105 26.702 12.105 L 87.49 12.105 C 90.186 12.105 92.356 14.276 92.356 16.973 L 92.356 68.656 L 93.811 70.335 L 93.811 16.973 C 93.811 13.49 90.972 10.651 87.49 10.651 Z"/>
<path d="M 93.179 141.385 C 87.467 136.284 77.033 112.617 78.38 106.082 C 79.701 99.683 71.629 90.726 73.308 85.36 C 69.677 87.102 60.412 71.055 59.61 69.45 C 63.241 73.992 70.723 82.562 73.353 80.836 C 72.404 86.378 81.599 94.179 81.142 100.697 C 80.702 107.025 87.906 120.322 93.135 126.431 L 93.179 141.385 Z" style="fill: url(#pattern-0);"/>
<circle style="stroke: #888; fill: none;" cx="164.228" cy="43.938" r="6.125"/>
<circle style="stroke: #888; fill: none;" cx="180.079" cy="43.938" r="6.125"/>
<circle style="stroke: #888; fill: none;" cx="195.93" cy="43.938" r="6.125"/>
<circle style="stroke: #888; fill: none;" cx="211.782" cy="43.938" r="6.125"/>
<circle style="stroke: #888; fill: none;" cx="164.228" cy="60.721" r="6.125"/>
<circle style="stroke: #888; fill: none;" cx="180.079" cy="60.721" r="6.125"/>
<circle style="stroke: #888; fill: none;" cx="211.782" cy="60.721" r="6.125"/>
<circle style="stroke: #888; fill: none;" cx="164.228" cy="77.505" r="6.125"/>
<path d="M 173.953 77.505 C 173.953 74.394 176.274 71.823 179.279 71.431 C 176.769 74.658 176.352 79.37 178.999 83.535 C 176.132 83.026 173.953 80.519 173.953 77.505 Z" style="stroke: #888; fill: none;"/>
<g transform="matrix(0.932436, 0, 0, 0.932436, -220.998199, -268.612427)">
<rect x="404.639" y="397.362" width="8" height="8" rx="2" ry="2" style="fill: none; stroke: #888;"/>
<rect x="414.639" y="397.362" width="8" height="8" rx="2" ry="2" style="fill: none; stroke: #888;"/>
<rect x="424.639" y="397.362" width="8" height="8" rx="2" ry="2" style="fill: none; stroke: #888;"/>
<rect x="434.639" y="397.362" width="8" height="8" rx="2" ry="2" style="fill: none; stroke: #888;"/>
<rect x="444.639" y="397.362" width="8" height="8" rx="2" ry="2" style="fill: none; stroke: #888;"/>
<path d="M 456.639 397.362 L 458.648 397.362 C 459.798 398.766 461.255 400.14 462.639 401.317 L 462.639 403.362 C 462.639 404.467 461.744 405.362 460.639 405.362 L 456.639 405.362 C 455.534 405.362 454.639 404.467 454.639 403.362 L 454.639 399.362 C 454.639 398.257 455.534 397.362 456.639 397.362 Z" style="fill: none; stroke: #888;"/>
<path d="M 466.639 405.362 C 465.534 405.362 464.639 404.467 464.639 403.362 L 464.639 402.935 C 466.115 404.073 467.196 404.793 467.196 404.793 C 467.183 404.974 467.176 405.164 467.173 405.362 Z" style="fill: none; stroke: #888;"/>
<rect x="409.639" y="408.362" width="8" height="8" rx="2" ry="2" style="fill: none; stroke: #888;"/>
<rect x="419.639" y="408.362" width="8" height="8" rx="2" ry="2" style="fill: none; stroke: #888;"/>
<rect x="429.639" y="408.362" width="8" height="8" rx="2" ry="2" style="fill: none; stroke: #888;"/>
<rect x="439.639" y="408.362" width="8" height="8" rx="2" ry="2" style="fill: none; stroke: #888;"/>
<rect x="449.639" y="408.362" width="8" height="8" rx="2" ry="2" style="fill: none; stroke: #888;"/>
<rect x="459.639" y="408.362" width="8" height="8" rx="2" ry="2" style="fill: none; stroke: #888;"/>
<rect x="404.639" y="419.362" width="8" height="8" rx="2" ry="2" style="fill: none; stroke: #888;"/>
<rect x="414.639" y="419.362" width="8" height="8" rx="2" ry="2" style="fill: none; stroke: #888;"/>
<rect x="424.639" y="419.362" width="8" height="8" rx="2" ry="2" style="fill: none; stroke: #888;"/>
<rect x="434.639" y="419.362" width="8" height="8" rx="2" ry="2" style="fill: none; stroke: #888;"/>
<rect x="444.639" y="419.362" width="8" height="8" rx="2" ry="2" style="fill: none; stroke: #888;"/>
<rect x="454.639" y="419.362" width="8" height="8" rx="2" ry="2" style="fill: none; stroke: #888;"/>
<path d="M 466.639 419.362 L 470.328 419.362 C 471.021 421.303 471.801 423.25 472.639 425.105 L 472.639 425.362 C 472.639 426.467 471.744 427.362 470.639 427.362 L 466.639 427.362 C 465.534 427.362 464.639 426.467 464.639 425.362 L 464.639 421.362 C 464.639 420.257 465.534 419.362 466.639 419.362 Z" style="fill: none; stroke: #888;"/>
<rect x="404.639" y="430.362" width="8" height="8" rx="2" ry="2" style="fill: none; stroke: #888;"/>
<rect x="414.639" y="430.362" width="8" height="8" rx="2" ry="2" style="fill: none; stroke: #888;"/>
<rect x="424.639" y="430.362" width="27" height="8" rx="2" ry="2" style="fill: none; stroke: #888;"/>
<rect x="454.639" y="430.362" width="8" height="8" rx="2" ry="2" style="fill: none; stroke: #888;"/>
<rect x="464.639" y="430.362" width="8" height="8" rx="2" ry="2" style="fill: none; stroke: #888;"/>
</g>
<circle style="stroke: #888; fill: none;" cx="195.93" cy="60.721" r="6.125"/>
<path d="M 217.907 77.505 C 217.907 78.159 217.804 78.79 217.614 79.381 C 217.132 79.106 216.655 78.856 216.185 78.631 C 214.147 77.876 210.288 76.239 206.415 74.55 C 207.458 72.66 209.47 71.38 211.782 71.38 C 215.164 71.38 217.907 74.122 217.907 77.505 Z" style="stroke: #888; fill: none;"/>
<path d="M 227.598 138.618 C 221.491 136.002 214.151 115.609 214.632 108.831 C 214.632 108.831 204.603 102.151 204.633 97.633 C 202.036 100.849 186.041 89.714 185.342 89.094 C 169.563 80.801 178.852 61.497 194.984 69.392 C 194.951 69.5 211.143 76.762 216.185 78.631 C 220.028 80.467 224.31 84.03 228.468 88.739 M 209.212 89.647 C 209.751 87.012 213.356 82.314 215.623 80.905 M 191.956 83.066 C 190.896 83.514 187.129 83.5 184.734 82.525 C 173.152 77.309 179.409 64.117 191.246 69.522 L 198.185 72.67 C 199.009 74.233 193.928 82.188 191.956 83.066 Z M 193.639 81.138 C 189.231 78.86 193.65 70.52 198.218 72.875" style="stroke: #888; fill: none;"/>
<line style="stroke: #888; stroke-width: 2px;" x1="187.951" y1="30.037" x2="188.057" y2="21.694"/>
<path style="fill: #888;" d="M 157.611 10.651 C 154.127 10.651 151.288 13.49 151.288 16.973 L 151.288 147.93 C 151.288 151.413 154.127 154.252 157.611 154.252 L 218.398 154.252 C 221.881 154.252 224.72 151.413 224.72 147.93 L 224.72 136.125 L 223.265 134.614 L 223.265 147.93 C 223.265 150.627 221.095 152.797 218.398 152.797 L 157.611 152.797 C 154.913 152.797 152.743 150.627 152.743 147.93 L 152.743 16.973 C 152.743 14.276 154.913 12.105 157.611 12.105 L 218.398 12.105 C 221.095 12.105 223.265 14.276 223.265 16.973 L 223.265 83.375 L 224.72 84.719 L 224.72 16.973 C 224.72 13.49 221.881 10.651 218.398 10.651 Z"/>
<path d="M 223.607 150.344 C 218.034 146.726 210.966 122.468 212.592 115.871 C 212.592 115.871 203.844 107.583 204.643 103.135 C 201.538 105.863 187.668 92.171 187.084 91.441 C 185.717 90.392 184.599 89.282 183.707 88.14 C 184.219 88.471 184.764 88.79 185.342 89.094 C 186.041 89.714 202.036 100.849 204.633 97.633 C 204.603 102.151 214.632 108.831 214.632 108.831 C 214.213 114.732 218.735 129.724 224.196 135.551 L 223.607 150.344 Z" style="fill: url(#pattern-0);"/>
<path d="M 358.353 136.746 C 352.63 135.645 347.113 124.89 346.246 117.261 C 346.246 117.261 335.86 114.502 333.476 109.186 C 332.449 113.189 313.275 109.705 312.381 109.431 C 294.583 108.439 295.015 87.023 312.969 87.503 C 312.984 87.616 330.73 87.497 336.095 87.103 C 342.812 85.722 356.786 95.442 361.099 96.207 M 334.325 100.02 C 333.721 97.399 335.049 91.628 336.527 89.404 M 315.895 101.2 C 315.116 102.047 311.681 103.598 309.1 103.706 C 296.397 103.772 296.611 89.172 309.624 89.173 L 317.244 89.156 C 318.641 90.234 317.324 99.582 315.895 101.2 Z M 316.623 98.748 C 311.668 98.506 312.18 88.909 317.313 89.155" style="stroke: #888; fill: none;"/>
<path style="fill: #888;" d="M 288.52 10.651 C 285.036 10.651 282.197 13.49 282.197 16.973 L 282.197 147.93 C 282.197 151.413 285.036 154.252 288.52 154.252 L 349.307 154.252 C 352.79 154.252 355.629 151.413 355.629 147.93 L 355.629 135.507 L 354.175 134.415 L 354.175 147.93 C 354.175 150.627 352.004 152.797 349.307 152.797 L 288.52 152.797 C 285.823 152.797 283.652 150.627 283.652 147.93 L 283.652 16.973 C 283.652 14.276 285.823 12.105 288.52 12.105 L 349.307 12.105 C 352.004 12.105 354.175 14.276 354.175 16.973 L 354.175 93.123 L 355.629 93.711 L 355.629 16.973 C 355.629 13.49 352.79 10.651 349.307 10.651 Z"/>
<path d="M 354.848 143.463 C 349.296 141.691 345.097 130.356 345.144 122.679 C 345.144 122.679 335.16 118.703 333.424 113.142 C 331.929 116.994 313.305 111.255 312.45 110.876 C 308.599 110.196 305.735 108.644 303.8 106.663 C 305.916 108.189 308.775 109.23 312.381 109.431 C 313.275 109.705 332.449 113.189 333.476 109.186 C 335.86 114.502 346.246 117.261 346.246 117.261 C 346.932 123.296 350.528 131.288 354.833 134.908 Z" style="fill: url(#pattern-0);"/>
<path style="fill: #888;" d="M 419.427 154.252 C 417.547 154.252 415.855 153.424 414.695 152.114 C 413.707 150.998 413.106 149.532 413.106 147.93 L 413.106 16.973 C 413.106 13.49 415.946 10.651 419.429 10.651 L 480.215 10.65 C 480.215 10.65 480.215 10.65 480.216 10.65 L 480.218 10.65 C 482.098 10.65 483.79 11.478 484.949 12.788 C 485.938 13.904 486.538 15.369 486.538 16.972 L 486.538 147.929 C 486.538 151.412 483.699 154.251 480.215 154.251 L 419.429 154.252 C 419.429 154.252 419.429 154.252 419.428 154.252 L 419.427 154.252 Z M 414.561 16.973 L 414.561 147.929 C 414.561 150.626 416.731 152.796 419.427 152.796 L 480.215 152.796 C 482.913 152.796 485.084 150.626 485.084 147.929 L 485.084 16.973 C 485.084 14.276 482.914 12.105 480.218 12.105 L 419.429 12.105 C 416.732 12.105 414.561 14.276 414.561 16.973 Z"/>
</svg>
