<?xml version="1.0" encoding="utf-8"?>
<svg viewBox="0 0 640 175" version="1.1" xmlns="http://www.w3.org/2000/svg">
<defs>
<pattern x="0" y="0" width="25" height="25" patternUnits="userSpaceOnUse" viewBox="0 0 100 100" patternTransform="matrix(-0.053636, 0.155565, -0.150254, -0.051805, 71.069206, 283.670044)" id="pattern-0">
<rect width="15.358" height="154.244" style="fill: #888;" transform="matrix(0.707107, -0.707107, 0.707107, 0.707107, -9.963383, 0.896367)"/>
<rect width="15.358" height="154.244" style="fill: #888;" transform="matrix(0.707107, -0.707107, 0.707107, 0.707107, -60, 50.859749)"/>
<rect width="15.358" height="154.244" style="fill: #888;" transform="matrix(0.707107, -0.707107, 0.707107, 0.707107, 40, -49.140251)"/>
</pattern>
</defs>
<path d="M 68.645 161.042 C 67.905 158.085 68.194 143.239 71.43 137.404 C 74.6 131.691 69.568 120.733 72.772 116.112 C 68.683 116.706 64.521 97.666 64.43 96.735 C 58.498 79.927 78.433 72.085 84.897 88.843 C 84.798 88.899 91.736 105.233 94.163 110.033 C 96.349 115.547 98.222 130.373 102.251 137.846 M 81.559 113.369 C 83.746 111.803 89.584 110.808 92.205 111.317 M 73.38 96.81 C 72.299 96.419 69.545 93.846 68.451 91.505 C 63.504 79.804 77.062 74.385 82.067 86.396 L 85.016 93.423 C 84.558 95.128 75.423 97.508 73.38 96.81 Z M 75.924 96.54 C 74.239 91.875 83.016 88.598 84.763 93.432" style="stroke: #888; fill: none; stroke-width: 0.999999px;"/>
<path style="fill: #888;" d="M 26.702 11.56 C 23.218 11.56 20.379 14.399 20.379 17.882 L 20.379 148.839 C 20.379 152.322 23.218 155.161 26.702 155.161 L 68.195 155.161 L 68.195 153.706 L 26.702 153.706 C 24.004 153.706 21.833 151.536 21.833 148.839 L 21.833 17.882 C 21.833 15.185 24.004 13.015 26.702 13.015 L 87.49 13.015 C 90.186 13.015 92.356 15.185 92.356 17.882 L 92.295 105.957 L 93.75 108.749 L 93.811 17.882 C 93.811 14.399 90.972 11.56 87.49 11.56 Z"/>
<path d="M 61.786 155.047 C 61.88 149.329 62.724 141.329 64.9 137.404 C 68.069 131.692 63.038 120.733 66.241 116.113 C 62.152 116.706 57.991 97.666 57.9 96.736 C 54.288 86.502 60.265 79.593 66.953 79.535 C 66.953 79.535 73.753 79.148 71.828 79.425 C 65.705 80.308 61.055 87.174 64.43 96.735 C 64.521 97.666 68.682 116.705 72.772 116.112 C 69.568 120.732 74.6 131.69 71.43 137.404 C 69.264 141.308 68.419 149.25 68.319 154.962 L 61.786 155.047 Z" style="fill: url(#pattern-0);"/>
<path d="M 198.406 154.604 C 200.196 149.225 202.417 133.567 200.706 129.96 C 196.142 129.263 187.879 119.088 185.378 112.855 C 185.791 113.231 186.229 113.599 186.695 113.96 C 187.257 114.452 197.036 126.393 203.145 126.471 C 204.097 129.945 205.377 131.927 205.804 138.446 C 206.034 141.932 204.708 148.626 203.712 154.513 L 198.406 154.604 Z" style="fill: url(#pattern-0);"/>
<path style="fill: #888;" d="M 157.611 11.56 C 154.127 11.56 151.288 14.399 151.288 17.882 L 151.288 148.839 C 151.288 152.322 154.127 155.161 157.611 155.161 L 203.611 155.161 L 203.611 153.706 L 157.611 153.706 C 154.913 153.706 152.743 151.536 152.743 148.839 L 152.743 17.882 C 152.743 15.185 154.913 13.015 157.611 13.015 L 218.398 13.015 C 221.095 13.015 223.265 15.185 223.265 17.882 L 223.204 114.056 L 224.659 116.076 L 224.72 17.882 C 224.72 14.399 221.881 11.56 218.398 11.56 Z"/>
<path d="M 175.084 152.145 C 175.459 149.119 187.532 144.421 192.651 140.141 C 197.663 135.951 202.821 129.796 207.473 126.638 C 203.443 125.719 206.596 106.301 206.662 105.557 C 207.175 87.739 228.596 87.596 228.596 105.557 C 228.484 105.574 229.08 123.311 229.618 128.662 C 229.673 134.594 220.671 150.278 215.482 157.275 C 211.626 163.755 211.948 167.282 212.496 170.149" style="fill: none;" transform="matrix(0.589725, -0.807604, 0.807604, 0.589725, -22.893167, 217.224854)"/>
<g transform="matrix(1.055221, -0.282746, 0.282746, 1.055221, -726.790283, -101.03476)" style="">
<line style="stroke: #888;" x1="738.061" y1="396.231" x2="747.63" y2="396.231"/>
<line style="stroke: #888;" x1="778.061" y1="396.231" x2="787.63" y2="396.231"/>
<line style="stroke: #888;" x1="762.845" y1="381.015" x2="762.845" y2="371.446"/>
<line style="stroke: #888;" x1="752.086" y1="385.472" x2="745.319" y2="378.705"/>
<line style="stroke: #888;" x1="780.37" y1="378.706" x2="773.604" y2="385.472"/>
<line style="stroke: #888;" x1="752.086" y1="406.99" x2="745.32" y2="413.756"/>
</g>
<circle style="stroke: #888; fill: none;" cx="295.137" cy="44.847" r="6.125"/>
<circle style="stroke: #888; fill: none;" cx="310.988" cy="44.847" r="6.125"/>
<circle style="stroke: #888; fill: none;" cx="326.839" cy="44.847" r="6.125"/>
<circle style="stroke: #888; fill: none;" cx="342.691" cy="44.847" r="6.125"/>
<circle style="stroke: #888; fill: none;" cx="295.137" cy="61.63" r="6.125"/>
<circle style="stroke: #888; fill: none;" cx="310.988" cy="61.63" r="6.125"/>
<circle style="stroke: #888; fill: none;" cx="326.839" cy="61.63" r="6.125"/>
<circle style="stroke: #888; fill: none;" cx="342.691" cy="61.63" r="6.125"/>
<circle style="stroke: #888; fill: none;" cx="295.137" cy="78.414" r="6.125"/>
<circle style="stroke: #888; fill: none;" cx="310.988" cy="78.414" r="6.125"/>
<path d="M 332.964 78.414 C 332.964 78.921 332.903 79.414 332.786 79.884 C 330.343 80.559 328.174 82.176 326.779 84.539 C 323.424 84.506 320.714 81.776 320.714 78.414 C 320.714 75.031 323.457 72.289 326.839 72.289 C 330.222 72.289 332.964 75.031 332.964 78.414 Z" style="stroke: #888; fill: none;"/>
<path d="M 348.816 78.414 C 348.816 81.254 346.883 83.643 344.261 84.336 C 342.099 81.476 339.383 79.98 336.684 79.62 C 336.607 79.23 336.566 78.826 336.566 78.414 C 336.566 75.031 339.308 72.289 342.691 72.289 C 346.073 72.289 348.816 75.031 348.816 78.414 Z" style="stroke: #888; fill: none;"/>
<path d="M 323.604 154.499 C 323.698 148.78 324.542 141.329 326.718 137.404 C 329.887 131.692 324.856 120.733 328.06 116.113 C 323.97 116.706 319.809 97.666 319.719 96.736 C 316.106 86.502 322.084 79.593 328.772 79.535 L 339.849 79.359 L 339.876 80.604 C 331.834 76.615 321.814 84.169 326.248 96.735 C 326.34 97.666 330.5 116.705 334.59 116.112 C 331.386 120.732 336.418 131.69 333.248 137.404 C 331.082 141.308 330.237 148.702 330.137 154.414 L 323.604 154.499 Z" style="fill: url(#pattern-0);"/>
<path d="M 330.464 161.041 C 329.724 158.084 330.012 143.239 333.248 137.403 C 336.418 131.69 331.387 120.732 334.591 116.111 C 330.5 116.705 326.34 97.665 326.248 96.735 C 320.316 79.925 340.252 72.084 346.714 88.842 C 346.616 88.899 353.553 105.233 355.982 110.032 C 358.167 115.547 360.041 130.372 364.068 137.846 M 343.376 113.369 C 345.563 111.804 351.401 110.809 354.022 111.318 M 335.199 96.81 C 334.117 96.418 331.364 93.846 330.27 91.503 C 325.323 79.804 338.88 74.385 343.886 86.396 L 346.834 93.423 C 346.376 95.128 337.241 97.508 335.199 96.81 Z M 337.743 96.54 C 336.058 91.875 344.833 88.598 346.581 93.432" style="stroke: #888; fill: none;"/>
<path style="fill: #888;" d="M 288.52 11.56 C 285.036 11.56 282.197 14.399 282.197 17.882 L 282.197 148.839 C 282.197 152.322 285.036 155.161 288.52 155.161 L 330.013 155.161 L 330.013 153.706 L 288.52 153.706 C 285.823 153.706 283.652 151.536 283.652 148.839 L 283.652 17.882 C 283.652 15.185 285.823 13.015 288.52 13.015 L 349.307 13.015 C 352.004 13.015 354.175 15.185 354.175 17.882 L 354.113 106.135 L 355.568 108.868 L 355.629 17.882 C 355.629 14.399 352.79 11.56 349.307 11.56 Z"/>
<line style="stroke: #888; stroke-width: 2px;" x1="318.86" y1="30.946" x2="318.967" y2="22.603"/>
<g transform="matrix(0.932436, 0, 0, 0.932436, -90.089073, -267.703369)">
<rect x="404.639" y="397.362" width="8" height="8" rx="2" ry="2" style="fill: none; stroke: #888;"/>
<rect x="414.639" y="397.362" width="8" height="8" rx="2" ry="2" style="fill: none; stroke: #888;"/>
<rect x="424.639" y="397.362" width="8" height="8" rx="2" ry="2" style="fill: none; stroke: #888;"/>
<rect x="434.639" y="397.362" width="8" height="8" rx="2" ry="2" style="fill: none; stroke: #888;"/>
<path d="M 446.639 397.362 L 448.04 397.362 C 448.733 399.917 449.623 402.834 450.626 405.362 L 446.639 405.362 C 445.534 405.362 444.639 404.467 444.639 403.362 L 444.639 399.362 C 444.639 398.257 445.534 397.362 446.639 397.362 Z" style="fill: none; stroke: #888;"/>
<rect x="409.639" y="408.362" width="8" height="8" rx="2" ry="2" style="fill: none; stroke: #888;"/>
<rect x="419.639" y="408.362" width="8" height="8" rx="2" ry="2" style="fill: none; stroke: #888;"/>
<rect x="429.639" y="408.362" width="8" height="8" rx="2" ry="2" style="fill: none; stroke: #888;"/>
<rect x="439.639" y="408.362" width="8" height="8" rx="2" ry="2" style="fill: none; stroke: #888;"/>
<path d="M 451.639 408.362 L 451.985 408.362 C 453.088 410.447 454.273 411.797 455.452 411.626 C 454.602 412.852 454.293 414.493 454.257 416.362 L 451.639 416.362 C 450.534 416.362 449.639 415.467 449.639 414.362 L 449.639 410.362 C 449.639 409.257 450.534 408.362 451.639 408.362 Z" style="fill: none; stroke: #888;"/>
<rect x="404.639" y="419.362" width="8" height="8" rx="2" ry="2" style="fill: none; stroke: #888;"/>
<rect x="414.639" y="419.362" width="8" height="8" rx="2" ry="2" style="fill: none; stroke: #888;"/>
<rect x="424.639" y="419.362" width="8" height="8" rx="2" ry="2" style="fill: none; stroke: #888;"/>
<rect x="434.639" y="419.362" width="8" height="8" rx="2" ry="2" style="fill: none; stroke: #888;"/>
<rect x="444.639" y="419.362" width="8" height="8" rx="2" ry="2" style="fill: none; stroke: #888;"/>
<rect x="404.639" y="430.362" width="8" height="8" rx="2" ry="2" style="fill: none; stroke: #888;"/>
<rect x="414.639" y="430.362" width="8" height="8" rx="2" ry="2" style="fill: none; stroke: #888;"/>
<rect x="424.639" y="430.362" width="27" height="8" rx="2" ry="2" style="fill: none; stroke: #888;"/>
</g>
<path d="M 190.097 106.887 C 189.816 108.003 186.966 107.376 184.777 105.999 C 175.592 99.329 184.213 87.491 193.461 94.333 L 197.97 97.752 C 199.167 98.553 191.11 102.889 190.097 106.887 Z M 203.231 165.55 C 201.008 163.463 206.243 145.105 205.804 138.446 C 205.377 131.927 204.097 129.945 203.145 126.471 C 197.036 126.393 187.257 114.452 186.695 113.96 C 172.607 103.039 182.66 84.268 197.165 94.86 C 197.111 94.96 212.431 104.691 216.398 106.303 C 226.956 112.252 233.082 140.839 239.215 143.127 M 205.449 116.431 C 206.441 113.93 210.811 109.934 213.29 108.943 M 190.362 106.082 C 187.525 103.234 193.323 96.439 197.479 98.523" style="stroke: #888; fill: none;"/>
</svg>
