<?xml version="1.0" encoding="utf-8"?>
<svg viewBox="0 0 640 175" version="1.1" xmlns="http://www.w3.org/2000/svg">
<defs>
<pattern x="0" y="0" width="25" height="25" patternUnits="userSpaceOnUse" viewBox="0 0 100 100" patternTransform="matrix(-0.053636, 0.155565, -0.150254, -0.051805, 71.069206, -96.329956)" id="pattern-0">
<rect width="15.358" height="154.244" style="fill: #888;" transform="matrix(0.707107, -0.707107, 0.707107, 0.707107, -9.963383, 0.896367)"/>
<rect width="15.358" height="154.244" style="fill: #888;" transform="matrix(0.707107, -0.707107, 0.707107, 0.707107, -60, 50.859749)"/>
<rect width="15.358" height="154.244" style="fill: #888;" transform="matrix(0.707107, -0.707107, 0.707107, 0.707107, 40, -49.140251)"/>
</pattern>
</defs>
<circle style="stroke: #888; fill: none;" cx="33.319" cy="43.028" r="6.125"/>
<circle style="stroke: #888; fill: none;" cx="49.169" cy="43.028" r="6.125"/>
<circle style="stroke: #888; fill: none;" cx="33.319" cy="59.812" r="6.125"/>
<circle style="stroke: #888; fill: none;" cx="33.319" cy="76.596" r="6.125"/>
<circle style="stroke: #888; fill: none;" cx="49.169" cy="76.596" r="6.125"/>
<path d="M 98.321 123.343 C 92.996 117.839 87.296 98.205 89.115 91.786 C 90.9 85.5 83.501 75.978 85.567 70.748 C 81.721 72.259 73.328 54.67 73.027 53.785 C 63.418 38.772 81.041 26.591 91.153 41.434 C 91.071 41.51 101.551 55.832 105.009 59.952 C 108.394 64.823 109.464 70.903 115.09 77.26 M 93.497 66.076 C 95.269 64.052 100.726 61.752 103.395 61.649 M 81.757 51.818 C 80.615 51.682 77.349 49.806 75.749 47.775 C 68.265 37.511 80.229 29.143 87.841 39.697 L 92.314 45.866 C 92.257 47.631 83.905 52.031 81.757 51.818 Z M 84.175 50.975 C 81.471 46.816 89.267 41.626 92.072 45.932" style="stroke: #888; fill: none;"/>
<line style="stroke: #888; stroke-width: 2px;" x1="57.042" y1="29.128" x2="57.148" y2="20.785"/>
<path d="M 65.021 49.154 C 61.639 49.154 58.896 46.411 58.896 43.028 C 58.896 39.645 61.639 36.903 65.021 36.903 C 67.82 36.903 70.181 38.781 70.912 41.345 C 70.39 42.788 70.155 44.411 70.287 46.159 C 69.219 47.951 67.261 49.154 65.021 49.154 Z" style="stroke: #888; fill: none;"/>
<circle style="stroke: #888; fill: none;" cx="49.169" cy="59.812" r="6.125"/>
<path d="M 74.748 59.812 C 74.748 59.156 74.851 58.524 75.041 57.932 C 76.28 60.313 77.953 63.311 79.67 65.819 C 76.863 65.26 74.748 62.783 74.748 59.812 Z" style="stroke: #888; fill: none;"/>
<circle style="stroke: #888; fill: none;" cx="65.021" cy="59.812" r="6.125"/>
<circle style="stroke: #888; fill: none;" cx="33.319" cy="93.38" r="6.125"/>
<circle style="stroke: #888; fill: none;" cx="49.169" cy="93.38" r="6.125"/>
<circle style="stroke: #888; fill: none;" cx="33.319" cy="110.164" r="6.125"/>
<circle style="stroke: #888; fill: none;" cx="65.021" cy="93.38" r="6.125"/>
<circle style="stroke: #888; fill: none;" cx="49.169" cy="110.164" r="6.125"/>
<circle style="stroke: #888; fill: none;" cx="80.873" cy="110.164" r="6.125"/>
<circle style="stroke: #888; fill: none;" cx="65.021" cy="110.164" r="6.125"/>
<circle style="stroke: #888; fill: none;" cx="33.319" cy="126.948" r="6.125"/>
<circle style="stroke: #888; fill: none;" cx="49.169" cy="126.948" r="6.125"/>
<circle style="stroke: #888; fill: none;" cx="80.873" cy="126.948" r="6.125"/>
<circle style="stroke: #888; fill: none;" cx="65.021" cy="126.948" r="6.125"/>
<path d="M 80.873 82.721 C 77.489 82.721 74.748 79.979 74.748 76.596 C 74.748 73.213 77.489 70.471 80.873 70.471 C 82.575 70.471 84.113 71.164 85.223 72.285 C 85.065 74.204 85.713 76.498 86.543 78.914 C 85.63 81.148 83.435 82.721 80.873 82.721 Z" style="stroke: #888; fill: none;"/>
<circle style="stroke: #888; fill: none;" cx="65.021" cy="76.596" r="6.125"/>
<circle style="stroke: #888; fill: none;" cx="80.873" cy="93.38" r="6.125"/>
<path style="fill: #888;" d="M 26.702 9.742 C 23.218 9.742 20.379 12.581 20.379 16.064 L 20.379 147.021 C 20.379 150.504 23.218 153.343 26.702 153.343 L 87.49 153.343 C 90.972 153.343 93.811 150.504 93.811 147.021 L 93.811 115.772 L 92.356 112.498 L 92.356 147.021 C 92.356 149.718 90.186 151.888 87.49 151.888 L 26.702 151.888 C 24.004 151.888 21.833 149.718 21.833 147.021 L 21.833 16.064 C 21.833 13.367 24.004 11.196 26.702 11.196 L 87.49 11.196 C 90.186 11.196 92.356 13.367 92.356 16.064 L 92.356 43.125 L 93.811 45.14 L 93.811 16.064 C 93.811 12.581 90.972 9.742 87.49 9.742 Z"/>
<path d="M 93.159 134.749 C 88.615 128.585 82.055 102.169 84.714 96.048 C 87.32 90.058 81.257 79.635 84.003 74.727 C 79.99 75.711 74.017 57.159 73.836 56.242 C 73.371 55.242 81.721 72.259 85.567 70.748 C 83.501 75.978 90.9 85.5 89.115 91.786 C 87.923 95.994 93.01 113.748 93.01 113.748 L 93.159 134.749 Z" style="fill: url(#pattern-0);"/>
<path d="M 196.673 44.977 C 196.673 40.38 200.4 36.653 204.997 36.653 C 205.087 36.653 205.175 36.655 205.264 36.658 C 201.153 39.743 199.356 46.106 203.561 53.178 C 199.649 52.497 196.673 49.084 196.673 44.977 Z" style="stroke: #888; fill: none;"/>
<path d="M 229.231 123.343 C 223.905 117.839 218.205 98.205 220.024 91.786 C 221.809 85.5 214.41 75.978 216.476 70.748 C 212.63 72.259 204.237 54.67 203.936 53.785 C 194.327 38.772 211.951 26.591 222.063 41.434 C 221.98 41.51 232.46 55.832 235.918 59.952 C 239.303 64.823 240.373 70.903 245.999 77.26 M 224.406 66.076 C 226.178 64.052 231.635 61.752 234.304 61.649 M 212.666 51.818 C 211.524 51.682 208.258 49.806 206.658 47.775 C 199.174 37.511 211.138 29.143 218.75 39.697 L 223.223 45.866 C 223.167 47.631 214.814 52.031 212.666 51.818 Z M 215.084 50.975 C 212.38 46.816 220.176 41.626 222.981 45.932" style="stroke: #888; fill: none;"/>
<path style="fill: #888;" d="M 157.611 9.742 C 154.127 9.742 151.288 12.581 151.288 16.064 L 151.288 147.021 C 151.288 150.504 154.127 153.343 157.611 153.343 L 218.398 153.343 C 221.881 153.343 224.72 150.504 224.72 147.021 L 224.72 115.688 L 223.265 112.917 L 223.265 147.021 C 223.265 149.718 221.095 151.888 218.398 151.888 L 157.611 151.888 C 154.913 151.888 152.743 149.718 152.743 147.021 L 152.743 16.064 C 152.743 13.367 154.913 11.196 157.611 11.196 L 218.398 11.196 C 221.095 11.196 223.265 13.367 223.265 16.064 L 223.265 43.125 L 224.72 44.804 L 224.72 16.064 C 224.72 12.581 221.881 9.742 218.398 9.742 Z"/>
<circle style="stroke: #888; fill: none;" cx="166.636" cy="66.471" r="5.48"/>
<circle style="stroke: #888; fill: none;" cx="193.759" cy="93.595" r="5.48"/>
<circle style="stroke: #888; fill: none;" cx="171.214" cy="89.017" r="2.705"/>
<circle style="stroke: #888; fill: none;" cx="166.011" cy="80.417" r="4.092"/>
<circle style="stroke: #888; fill: none;" cx="205.829" cy="80.485" r="6.937"/>
<circle style="stroke: #888; fill: none;" cx="179.815" cy="94.22" r="4.092"/>
<circle style="stroke: #888; fill: none;" cx="179.746" cy="54.402" r="6.937"/>
<path d="M 224.068 134.749 C 219.524 128.585 212.964 102.169 215.623 96.048 C 218.229 90.058 212.167 79.635 214.912 74.727 C 210.899 75.711 204.927 57.159 204.745 56.242 C 204.28 55.242 212.63 72.259 216.476 70.748 C 214.41 75.978 221.809 85.5 220.024 91.786 C 218.496 97.842 223.919 113.748 223.919 113.748 Z" style="fill:url(#pattern-0)"/>
<circle style="stroke: #888; fill: none;" cx="298.075" cy="71.127" r="6.125"/>
<circle style="stroke: #888; fill: none;" cx="339.671" cy="71.127" r="6.125"/>
<circle style="stroke: #888; fill: none;" cx="318.873" cy="50.328" r="6.125"/>
<circle style="stroke: #888; fill: none;" cx="318.873" cy="91.924" r="6.125"/>
<circle style="stroke: #888; fill: none;" cx="304.167" cy="56.421" r="6.125"/>
<circle style="stroke: #888; fill: none;" cx="333.579" cy="85.834" r="6.125"/>
<circle style="stroke: #888; fill: none;" cx="333.578" cy="56.42" r="6.125"/>
<circle style="stroke: #888; fill: none;" cx="304.166" cy="85.833" r="6.125"/>
<path style="fill: #888;" d="M 288.518 153.343 C 286.638 153.343 284.945 152.515 283.786 151.205 C 282.798 150.089 282.197 148.623 282.197 147.021 L 282.197 16.064 C 282.197 12.581 285.036 9.742 288.52 9.742 L 349.306 9.741 C 349.306 9.741 349.306 9.741 349.307 9.741 L 349.308 9.741 C 351.188 9.741 352.881 10.569 354.04 11.879 C 355.028 12.995 355.629 14.46 355.629 16.063 L 355.629 147.02 C 355.629 150.503 352.79 153.342 349.306 153.342 L 288.52 153.343 C 288.52 153.343 288.52 153.343 288.519 153.343 L 288.518 153.343 Z M 283.652 16.064 L 283.652 147.02 C 283.652 149.717 285.822 151.887 288.518 151.887 L 349.306 151.887 C 352.004 151.887 354.175 149.717 354.175 147.02 L 354.175 16.064 C 354.175 13.367 352.004 11.196 349.308 11.196 L 288.52 11.196 C 285.823 11.196 283.652 13.367 283.652 16.064 Z"/>
</svg>
