<?xml version="1.0" encoding="utf-8"?>
<svg viewBox="0 0 640 175" version="1.1" xmlns="http://www.w3.org/2000/svg">
<defs>
<pattern x="0" y="0" width="25" height="25" patternUnits="userSpaceOnUse" viewBox="0 0 100 100" patternTransform="matrix(-0.053636, 0.155565, -0.150254, -0.051805, 71.069206, 473.670044)" id="pattern-0">
<rect width="15.358" height="154.244" style="fill: #888;" transform="matrix(0.707107, -0.707107, 0.707107, 0.707107, -9.963383, 0.896367)"/>
<rect width="15.358" height="154.244" style="fill: #888;" transform="matrix(0.707107, -0.707107, 0.707107, 0.707107, -60, 50.859749)"/>
<rect width="15.358" height="154.244" style="fill: #888;" transform="matrix(0.707107, -0.707107, 0.707107, 0.707107, 40, -49.140251)"/>
</pattern>
</defs>
<path d="M 198.406 155.513 C 200.196 150.134 202.417 134.476 200.706 130.869 C 196.142 130.172 187.879 119.997 185.378 113.764 C 185.791 114.14 186.229 114.508 186.695 114.869 C 187.257 115.361 197.036 127.302 203.145 127.38 C 204.097 130.854 205.377 132.836 205.804 139.355 C 206.034 142.841 204.708 149.535 203.712 155.422 L 198.406 155.513 Z" style="fill: url(#pattern-0);"/>
<path style="fill: #888;stroke:none;" d="M 157.611 12.469 C 154.127 12.469 151.288 15.308 151.288 18.791 L 151.288 149.748 C 151.288 153.231 154.127 156.07 157.611 156.07 L 203.611 156.07 L 203.611 154.615 L 157.611 154.615 C 154.913 154.615 152.743 152.445 152.743 149.748 L 152.743 18.791 C 152.743 16.094 154.913 13.924 157.611 13.924 L 218.398 13.924 C 221.095 13.924 223.265 16.094 223.265 18.791 L 223.204 114.889 L 224.659 116.969 L 224.72 18.791 C 224.72 15.308 221.881 12.469 218.398 12.469 Z"/>
<circle style="stroke: #888; fill: none;" cx="167.207" cy="102.919" r="6.125"/>
<path d="M 214.928 102.919 C 214.928 104.069 214.611 105.145 214.06 106.064 C 211.215 104.54 207.011 102.007 203.509 99.836 C 204.57 98.015 206.544 96.793 208.802 96.793 C 212.185 96.793 214.928 99.535 214.928 102.919 Z" style="stroke: #888; fill: none;"/>
<circle style="stroke: #888; fill: none;" cx="188.004" cy="82.12" r="6.125"/>
<path d="M 194.129 123.716 C 194.129 127.099 191.388 129.841 188.004 129.841 C 184.622 129.841 181.879 127.099 181.879 123.716 C 181.879 120.333 184.622 117.591 188.004 117.591 C 188.448 117.591 188.881 117.639 189.299 117.728 C 190.568 119.084 192.198 120.743 193.966 122.3 C 194.073 122.755 194.129 123.228 194.129 123.716 Z" style="stroke: #888; fill: none;"/>
<circle style="stroke: #888; fill: none;" cx="173.298" cy="88.213" r="6.125"/>
<circle style="stroke: #888; fill: none;" cx="202.71" cy="88.212" r="6.125"/>
<circle style="stroke: #888; fill: none;" cx="173.297" cy="117.625" r="6.125"/>
<path d="M 190.097 107.796 C 189.816 108.912 186.966 108.285 184.777 106.908 C 175.592 100.238 184.213 88.4 193.461 95.242 L 197.97 98.661 C 199.167 99.462 191.11 103.799 190.097 107.796 Z M 203.231 166.459 C 201.008 164.372 206.243 146.014 205.804 139.355 C 205.377 132.836 204.097 130.854 203.145 127.38 C 197.036 127.302 187.257 115.361 186.695 114.869 C 172.607 103.948 182.66 85.177 197.165 95.769 C 197.111 95.869 212.431 105.6 216.398 107.212 C 226.956 113.161 233.082 141.748 239.215 144.036 M 205.449 117.34 C 206.441 114.839 210.811 110.843 213.29 109.852 M 190.362 106.991 C 187.525 104.143 193.323 97.348 197.479 99.432" style="stroke: #888; fill: none;"/>
<path d="M 203.231 166.459 C 201.008 164.372 204.334 151.851 203.896 145.193 C 203.468 138.674 201.539 130.879 201.732 125.259 C 198.613 127.972 184.791 113.974 184.229 113.482 C 170.141 102.56 182.658 85.176 197.164 95.768 C 197.112 95.869 211.787 105.848 216.426 108.569 C 221.249 112.022 228.607 128.542 231.198 136.859 C 234.157 143.794 237.195 145.614 239.834 146.862" style="fill: none;"/>
<path d="M 327.767 155.361 C 327.408 151.547 325.891 146.081 322.66 143.364 C 316.06 139.143 309.679 127.346 309.298 127.019 C 313.912 131.693 315.73 135.025 323.78 138.703 C 328.052 142.296 331.856 149.175 334.497 155.447 L 327.767 155.361 Z" style="fill: url(#pattern-0);"/>
<path style="fill: #888;" d="M 288.52 12.469 C 285.036 12.469 282.197 15.308 282.197 18.791 L 282.197 149.748 C 282.197 153.231 285.036 156.07 288.52 156.07 L 334.695 156.07 L 334.22 154.615 L 288.52 154.615 C 285.823 154.615 283.652 152.445 283.652 149.748 L 283.652 18.791 C 283.652 16.094 285.823 13.924 288.52 13.924 L 349.307 13.924 C 352.004 13.924 354.175 16.094 354.175 18.791 L 354.113 127.785 L 355.568 128.915 L 355.629 18.791 C 355.629 15.308 352.79 12.469 349.307 12.469 Z"/>
<path d="M 337.247 163.039 C 336.387 160.151 335.033 156.481 333.322 152.79 C 330.783 147.315 327.455 141.793 323.78 138.703 C 315.73 135.025 308.685 126.083 308.122 125.591 C 294.035 114.669 305.969 96.583 320.823 106.329 C 327.205 109.205 334.388 111.926 340.14 116.459 C 346.741 121.663 354.753 127.71 359.851 133.084 M 327.785 130.076 C 328.372 127.451 332.06 122.817 334.353 121.449 M 311.42 120.464 C 311.138 121.579 308.286 120.946 306.098 119.569 C 296.912 112.898 306.581 100.055 315.711 106.684 C 317.261 107.596 319.392 109.768 318.817 111.015 C 318.192 111.53 312.432 116.467 311.42 120.464 Z M 311.585 119.747 C 309.023 117.084 314.543 109.8 318.335 111.51" style="stroke: #888; fill: none;"/>
<path d="M 334.14 166.459 C 331.917 164.372 335.243 151.851 334.805 145.193 C 334.377 138.674 332.448 130.879 332.641 125.26 C 329.522 127.972 315.7 113.974 315.138 113.482 C 301.05 102.56 313.569 85.176 328.073 95.768 C 328.021 95.868 342.696 105.848 347.335 108.569 C 352.159 112.022 359.516 128.542 362.107 136.859 C 365.066 143.794 368.104 145.614 370.743 146.862" style="fill: none;"/>
<circle r="4.637" cy="88.239" cx="333.652" style="fill: none; stroke: #888;"/>
<circle r="5.364" cy="82.328" cx="321.741" style="fill: none; stroke: #888;"/>
<circle r="6.092" cy="85.784" cx="307.103" style="fill: none; stroke: #888;"/>
<circle r="6.819" cy="100.15" cx="298.282" style="fill: none; stroke: #888;"/>
<path d="M 304.193 125.153 C 300.076 125.153 296.737 121.815 296.737 117.697 C 296.737 114.161 299.198 111.201 302.501 110.435 C 300.955 114.673 301.959 120.132 306.961 124.623 C 306.105 124.965 305.172 125.153 304.193 125.153 Z" style="fill: none; stroke: #888;"/>
<circle r="5.364" cy="100.15" cx="339.562" style="fill: none; stroke: #888;"/>
<path d="M 342.199 114.788 C 342.199 115.785 341.959 116.725 341.535 117.556 C 341.065 117.186 340.599 116.821 340.14 116.459 C 337.431 114.324 334.404 112.591 331.294 111.054 C 332.408 109.62 334.15 108.697 336.107 108.697 C 339.471 108.697 342.199 111.424 342.199 114.788 Z" style="fill: none; stroke: #888;"/>
<path d="M 61.786 155.313 C 61.88 149.595 62.724 142.239 64.9 138.313 C 68.069 132.601 63.038 121.642 66.241 117.023 C 62.152 117.615 57.991 98.575 57.9 97.645 C 54.288 87.411 60.265 80.502 66.953 80.444 C 66.953 80.444 73.753 80.057 71.828 80.335 C 65.705 81.217 61.055 88.083 64.43 97.644 C 64.521 98.575 68.682 117.615 72.772 117.021 C 69.568 121.641 74.6 132.599 71.43 138.313 C 69.264 142.217 68.419 149.703 68.319 155.415 L 61.786 155.313 Z" style="fill: url(#pattern-0);"/>
<path d="M 68.646 161.951 C 67.905 158.993 68.194 144.148 71.43 138.312 C 74.6 132.599 69.569 121.641 72.772 117.02 C 68.682 117.615 64.521 98.574 64.431 97.644 C 58.497 80.834 78.433 72.993 84.896 89.751 C 84.798 89.808 91.736 106.142 94.164 110.941 C 96.349 116.456 98.223 131.281 102.25 138.755 M 81.559 114.279 C 83.745 112.713 89.583 111.718 92.204 112.227 M 75.924 97.449 C 74.24 92.784 83.015 89.507 84.764 94.341 M 73.38 97.719 C 72.299 97.327 69.545 94.755 68.452 92.412 C 63.505 80.713 77.062 75.294 82.068 87.305 L 85.016 94.332 C 84.559 96.037 75.423 98.417 73.38 97.719 Z" style="stroke: #888; fill: none;"/>
<path style="fill: #888;" d="M 26.702 12.469 C 23.218 12.469 20.379 15.308 20.379 18.791 L 20.379 149.748 C 20.379 153.231 23.218 156.07 26.702 156.07 L 68.195 156.07 L 68.195 154.615 L 26.702 154.615 C 24.004 154.615 21.833 152.445 21.833 149.748 L 21.833 18.791 C 21.833 16.094 24.004 13.924 26.702 13.924 L 87.49 13.924 C 90.186 13.924 92.356 16.094 92.356 18.791 L 92.295 106.926 L 93.75 109.836 L 93.811 18.791 C 93.811 15.308 90.972 12.469 87.49 12.469 Z"/>
<path d="M 459.041 138.769 C 462.025 140.244 478.219 142.409 485.9 139.806 C 486.282 139.676 485.767 144.457 485.742 146.692 C 479.153 146.246 468.947 146.633 464.558 145.476 C 458.24 143.811 456.538 142.177 453.31 140.58 C 454.399 134.568 444.543 122.689 444.169 122.044 C 443.01 119.748 441.594 117.913 440.042 116.505 C 445.331 120.702 452.032 125.671 459.041 138.769 Z" style="fill: url(#pattern-0);"/>
<path style="fill: #888;" d="M 419.429 12.469 C 415.946 12.469 413.106 15.308 413.106 18.791 L 413.106 149.748 C 413.106 153.231 415.946 156.07 419.429 156.07 L 434.78 156.07 L 433.77 154.615 L 419.429 154.615 C 416.732 154.615 414.561 152.445 414.561 149.748 L 414.561 18.791 C 414.561 16.094 416.732 13.924 419.429 13.924 L 480.218 13.924 C 482.914 13.924 485.084 16.094 485.084 18.791 L 485.023 146.686 L 486.477 146.745 L 486.538 18.791 C 486.538 15.308 483.7 12.468 480.218 12.468 Z"/>
<circle style="stroke: #888; fill: none;" cx="469.103" cy="110.769" r="5.48"/>
<circle style="stroke: #888; fill: none;" cx="441.98" cy="83.646" r="5.48"/>
<circle style="stroke: #888; fill: none;" cx="464.525" cy="88.224" r="2.705"/>
<path d="M 443.436 117.637 C 443.436 118.497 443.306 119.327 443.063 120.107 C 438.974 113.751 432.711 111.849 428.03 113.263 C 429.497 110.892 432.121 109.313 435.113 109.313 C 439.71 109.313 443.436 113.04 443.436 117.637 Z" style="stroke: #888; fill: none;"/>
<circle style="stroke: #888; fill: none;" cx="469.728" cy="96.824" r="4.092"/>
<circle style="stroke: #888; fill: none;" cx="429.911" cy="96.757" r="6.937"/>
<circle style="stroke: #888; fill: none;" cx="455.924" cy="83.021" r="4.092"/>
<circle style="stroke: #888; fill: none;" cx="455.994" cy="122.839" r="6.937"/>
<path d="M 443.016 140.924 C 440.372 141.42 435.615 144.947 434.168 147.192 M 436.577 124.037 C 437.725 123.972 437.655 121.055 436.72 118.645 C 431.924 108.356 418.66 114.56 423.611 124.943 L 426.107 130.023 C 426.632 130.667 432.459 124.268 436.577 124.037 Z M 435.605 124.172 C 433.479 121.149 425.709 125.635 426.794 129.709 M 491.655 148.122 C 490.031 145.541 471.01 147.176 464.558 145.476 C 458.24 143.811 456.538 142.177 453.31 140.58 C 454.399 134.568 444.543 122.689 444.169 122.044 C 436.135 106.132 415.791 112.417 423.422 128.677 C 423.53 128.644 430.159 145.539 430.985 149.74 C 433.596 156.04 439.893 162.487 447.562 166.617" style="stroke: #888; fill: none;"/>
<path style="fill: #888;" d="M 550.336 156.07 C 548.456 156.07 546.764 155.242 545.604 153.932 C 544.616 152.816 544.015 151.351 544.015 149.748 L 544.015 18.791 C 544.015 15.308 546.855 12.469 550.338 12.469 L 611.124 12.468 C 611.124 12.468 611.124 12.468 611.125 12.468 L 611.127 12.468 C 613.007 12.468 614.699 13.296 615.858 14.606 C 616.847 15.722 617.447 17.188 617.447 18.79 L 617.447 149.747 C 617.447 153.23 614.608 156.069 611.124 156.069 L 550.338 156.07 C 550.338 156.07 550.338 156.07 550.338 156.07 L 550.336 156.07 Z M 545.47 18.791 L 545.47 149.747 C 545.47 152.444 547.64 154.615 550.336 154.615 L 611.124 154.615 C 613.822 154.615 615.993 152.444 615.993 149.747 L 615.993 18.791 C 615.993 16.094 613.823 13.924 611.127 13.924 L 550.338 13.924 C 547.641 13.924 545.47 16.094 545.47 18.791 Z"/>
<line style="stroke: #888;" x1="544.797" y1="33.376" x2="616.753" y2="33.376"/>
<line style="stroke: #888;" x1="544.797" y1="143.194" x2="616.753" y2="143.194"/>
</svg>
