<?xml version="1.0" encoding="utf-8"?>
<svg viewBox="0 0 48 48" width="48" height="48" xmlns="http://www.w3.org/2000/svg">
<path d="M 24 2.906 C 12.35 2.906 2.906 12.35 2.906 24 C 2.906 35.65 12.35 45.094 24 45.094 C 35.65 45.094 45.094 35.65 45.094 24 C 45.094 12.35 35.65 2.906 24 2.906 Z M 14.875 16.751 C 16.259 16.751 17.381 17.855 17.381 19.217 C 17.381 20.579 16.259 21.683 14.875 21.683 C 13.49 21.683 12.368 20.579 12.368 19.217 C 12.368 17.855 13.49 16.751 14.875 16.751 Z M 24 16.751 C 25.384 16.751 26.507 17.855 26.507 19.217 C 26.507 20.579 25.384 21.683 24 21.683 C 22.616 21.683 21.493 20.579 21.493 19.217 C 21.493 17.855 22.616 16.751 24 16.751 Z M 33.125 16.751 C 34.51 16.751 35.632 17.855 35.632 19.217 C 35.632 20.579 34.51 21.683 33.125 21.683 C 31.741 21.683 30.619 20.579 30.619 19.217 C 30.619 17.855 31.741 16.751 33.125 16.751 Z M 14.875 26.317 C 16.259 26.317 17.381 27.421 17.381 28.783 C 17.381 30.145 16.259 31.249 14.875 31.249 C 13.49 31.249 12.368 30.145 12.368 28.783 C 12.368 27.421 13.49 26.317 14.875 26.317 Z M 24 26.317 C 25.384 26.317 26.507 27.421 26.507 28.783 C 26.507 30.145 25.384 31.249 24 31.249 C 22.616 31.249 21.493 30.145 21.493 28.783 C 21.493 27.421 22.616 26.317 24 26.317 L 24 26.317 Z M 33.125 26.317 C 34.51 26.317 35.632 27.421 35.632 28.783 C 35.632 30.145 34.51 31.249 33.125 31.249 C 31.741 31.249 30.619 30.145 30.619 28.783 C 30.619 27.421 31.741 26.317 33.125 26.317 Z" fill="#f5f5f5" transform="matrix(0.9999999999999999, 0, 0, 0.9999999999999999, -1.7763568394002505e-15, -1.7763568394002505e-15)"/>
</svg>
