<?xml version="1.0" encoding="UTF-8" standalone="no"?>
<svg
   xmlns:dc="http://purl.org/dc/elements/1.1/"
   xmlns:cc="http://creativecommons.org/ns#"
   xmlns:rdf="http://www.w3.org/1999/02/22-rdf-syntax-ns#"
   xmlns:svg="http://www.w3.org/2000/svg"
   xmlns="http://www.w3.org/2000/svg"
   xmlns:sodipodi="http://sodipodi.sourceforge.net/DTD/sodipodi-0.dtd"
   xmlns:inkscape="http://www.inkscape.org/namespaces/inkscape"
   inkscape:version="1.0beta1 (32d4812, 2019-09-19)"
   sodipodi:docname="ic_info.svg"
   id="svg837"
   version="1.1"
   viewBox="0 0 48 48"
   height="48"
   width="48">
  <metadata
     id="metadata843">
    <rdf:RDF>
      <cc:Work
         rdf:about="">
        <dc:format>image/svg+xml</dc:format>
        <dc:type
           rdf:resource="http://purl.org/dc/dcmitype/StillImage" />
        <dc:title />
      </cc:Work>
    </rdf:RDF>
  </metadata>
  <defs
     id="defs841" />
  <sodipodi:namedview
     inkscape:current-layer="svg837"
     inkscape:window-maximized="0"
     inkscape:window-y="0"
     inkscape:window-x="0"
     inkscape:cy="24.017578"
     inkscape:cx="23.989258"
     inkscape:zoom="10.356238"
     inkscape:showpageshadow="false"
     showgrid="false"
     id="namedview839"
     inkscape:window-height="907"
     inkscape:window-width="1600"
     inkscape:pageshadow="2"
     inkscape:pageopacity="0"
     guidetolerance="10"
     gridtolerance="10"
     objecttolerance="10"
     borderopacity="1"
     inkscape:document-rotation="0"
     bordercolor="#eeeeee"
     pagecolor="#ffffff" />
  <path
     style="fill:#ffffff"
     inkscape:connector-curvature="0"
     id="path835"
     d="m 23,19 h 2 v 2 h -2 z m 0,4 h 2 v 6 h -2 z m 1,-9 c -5.52,0 -10,4.48 -10,10 0,5.52 4.48,10 10,10 5.52,0 10,-4.48 10,-10 0,-5.52 -4.48,-10 -10,-10 z m 0,18 c -4.41,0 -8,-3.59 -8,-8 0,-4.41 3.59,-8 8,-8 4.41,0 8,3.59 8,8 0,4.41 -3.59,8 -8,8 z" />
  <path
     style="color:#000000;font-style:normal;font-variant:normal;font-weight:normal;font-stretch:normal;font-size:medium;line-height:normal;font-family:sans-serif;font-variant-ligatures:normal;font-variant-position:normal;font-variant-caps:normal;font-variant-numeric:normal;font-variant-alternates:normal;font-variant-east-asian:normal;font-feature-settings:normal;font-variation-settings:normal;text-indent:0;text-align:start;text-decoration:none;text-decoration-line:none;text-decoration-style:solid;text-decoration-color:#000000;letter-spacing:normal;word-spacing:normal;text-transform:none;writing-mode:lr-tb;direction:ltr;text-orientation:mixed;dominant-baseline:auto;baseline-shift:baseline;text-anchor:start;white-space:normal;shape-padding:0;shape-margin:0;inline-size:0;clip-rule:nonzero;display:inline;overflow:visible;visibility:visible;isolation:auto;mix-blend-mode:normal;color-interpolation:sRGB;color-interpolation-filters:linearRGB;solid-color:#000000;solid-opacity:1;vector-effect:none;fill:#ffffff;fill-opacity:1;fill-rule:nonzero;stroke:none;stroke-width:1.88976;stroke-linecap:square;stroke-linejoin:round;stroke-miterlimit:4;stroke-dasharray:1.88976, 3.77952999999999983;stroke-dashoffset:0;stroke-opacity:1;filter-blend-mode:normal;filter-gaussianBlur-deviation:0;color-rendering:auto;image-rendering:auto;shape-rendering:auto;text-rendering:auto;enable-background:accumulate;stop-color:#000000;stop-opacity:1;opacity:1"
     d="M 4.0488281 0.15429688 L 4.0488281 0.24804688 C 4.0371763 0.25034681 4.0253119 0.24956524 4.0136719 0.25195312 L 3.0878906 0.44140625 L 3.46875 2.2929688 L 4.3925781 2.1035156 C 4.5879414 2.063438 4.7897809 2.0429672 4.9921875 2.0429688 L 5.9375 2.0429688 L 6.8828125 2.0429688 L 7.828125 2.0429688 L 7.828125 0.15429688 L 6.8828125 0.15429688 L 5.9375 0.15429688 L 4.9921875 0.15429688 L 4.0488281 0.15429688 z M 9.7167969 0.15429688 L 9.7167969 2.0429688 L 10.662109 2.0429688 L 12.552734 2.0429688 L 13.496094 2.0429688 L 13.496094 0.15429688 L 12.552734 0.15429688 L 10.662109 0.15429688 L 9.7167969 0.15429688 z M 15.386719 0.15429688 L 15.386719 2.0429688 L 16.332031 2.0429688 L 18.220703 2.0429688 L 19.166016 2.0429688 L 19.166016 0.15429688 L 18.220703 0.15429688 L 16.332031 0.15429688 L 15.386719 0.15429688 z M 21.056641 0.15429688 L 21.056641 2.0429688 L 22 2.0429688 L 23.890625 2.0429688 L 24.835938 2.0429688 L 24.835938 0.15429688 L 23.890625 0.15429688 L 22 0.15429688 L 21.056641 0.15429688 z M 26.724609 0.15429688 L 26.724609 2.0429688 L 27.669922 2.0429688 L 29.560547 2.0429688 L 30.503906 2.0429688 L 30.503906 0.15429688 L 29.560547 0.15429688 L 27.669922 0.15429688 L 26.724609 0.15429688 z M 32.394531 0.15429688 L 32.394531 2.0429688 L 33.339844 2.0429688 L 35.228516 2.0429688 L 36.173828 2.0429688 L 36.173828 0.15429688 L 35.228516 0.15429688 L 33.339844 0.15429688 L 32.394531 0.15429688 z M 38.064453 0.15429688 L 38.064453 2.0429688 L 39.007812 2.0429688 L 40.898438 2.0429688 L 41.84375 2.0429688 L 41.84375 0.15429688 L 40.898438 0.15429688 L 39.007812 0.15429688 L 38.064453 0.15429688 z M 44.154297 0.19921875 L 43.378906 1.921875 L 44.240234 2.3085938 C 44.668393 2.5011211 45.056877 2.8113218 45.34375 3.1855469 L 45.917969 3.9355469 L 47.417969 2.7851562 L 46.84375 2.0351562 C 46.364658 1.410182 45.735945 0.909839 45.015625 0.5859375 L 44.154297 0.19921875 z M 0.90625 2.2460938 L 0.53320312 3.1132812 C 0.20827749 3.8660929 0.12831013 4.6474656 0.15625 5.3730469 L 0.19335938 6.3183594 L 2.0820312 6.2460938 L 2.0449219 5.3007812 C 2.0244309 4.7686427 2.0899312 4.2729136 2.2675781 3.8613281 L 2.6425781 2.9941406 L 0.90625 2.2460938 z M 45.958984 5.2636719 L 45.958984 6.2089844 L 45.958984 8.0996094 L 45.958984 9.0429688 L 47.847656 9.0429688 L 47.847656 8.0996094 L 47.847656 6.2089844 L 47.847656 5.2636719 L 45.958984 5.2636719 z M 0.15625 8.171875 L 0.15625 9.1171875 L 0.15625 11.007812 L 0.15625 11.951172 L 2.0449219 11.951172 L 2.0449219 11.007812 L 2.0449219 9.1171875 L 2.0449219 8.171875 L 0.15625 8.171875 z M 45.958984 10.933594 L 45.958984 11.878906 L 45.958984 13.767578 L 45.958984 14.712891 L 47.847656 14.712891 L 47.847656 13.767578 L 47.847656 11.878906 L 47.847656 10.933594 L 45.958984 10.933594 z M 0.15625 13.841797 L 0.15625 14.787109 L 0.15625 16.675781 L 0.15625 17.621094 L 2.0449219 17.621094 L 2.0449219 16.675781 L 2.0449219 14.787109 L 2.0449219 13.841797 L 0.15625 13.841797 z M 45.958984 16.603516 L 45.958984 17.548828 L 45.958984 19.4375 L 45.958984 20.382812 L 47.847656 20.382812 L 47.847656 19.4375 L 47.847656 17.548828 L 47.847656 16.603516 L 45.958984 16.603516 z M 0.15625 19.511719 L 0.15625 20.455078 L 0.15625 22.345703 L 0.15625 23.291016 L 2.0449219 23.291016 L 2.0449219 22.345703 L 2.0449219 20.455078 L 2.0449219 19.511719 L 0.15625 19.511719 z M 45.958984 22.271484 L 45.958984 23.216797 L 45.958984 25.107422 L 45.958984 26.052734 L 47.847656 26.052734 L 47.847656 25.107422 L 47.847656 23.216797 L 47.847656 22.271484 L 45.958984 22.271484 z M 0.15625 25.179688 L 0.15625 26.125 L 0.15625 28.015625 L 0.15625 28.958984 L 2.0449219 28.958984 L 2.0449219 28.015625 L 2.0449219 26.125 L 2.0449219 25.179688 L 0.15625 25.179688 z M 45.958984 27.941406 L 45.958984 28.886719 L 45.958984 30.775391 L 45.958984 31.720703 L 47.847656 31.720703 L 47.847656 30.775391 L 47.847656 28.886719 L 47.847656 27.941406 L 45.958984 27.941406 z M 0.15625 30.849609 L 0.15625 31.794922 L 0.15625 33.683594 L 0.15625 34.628906 L 2.0449219 34.628906 L 2.0449219 33.683594 L 2.0449219 31.794922 L 2.0449219 30.849609 L 0.15625 30.849609 z M 45.958984 33.611328 L 45.958984 34.556641 L 45.958984 36.445312 L 45.958984 37.390625 L 47.847656 37.390625 L 47.847656 36.445312 L 47.847656 34.556641 L 47.847656 33.611328 L 45.958984 33.611328 z M 0.15625 36.519531 L 0.15625 37.462891 L 0.15625 39.353516 L 0.15625 40.298828 L 2.0449219 40.298828 L 2.0449219 39.353516 L 2.0449219 37.462891 L 2.0449219 36.519531 L 0.15625 36.519531 z M 45.958984 39.279297 L 45.958984 40.224609 L 45.958984 42.115234 L 45.958984 43.060547 L 47.847656 43.060547 L 47.847656 42.115234 L 47.847656 40.224609 L 47.847656 39.279297 L 45.958984 39.279297 z M 2.0195312 42.160156 L 0.13085938 42.216797 L 0.15820312 43.160156 C 0.18122042 43.943046 0.39368716 44.718799 0.7890625 45.40625 L 1.2597656 46.224609 L 2.8984375 45.283203 L 2.4257812 44.462891 C 2.1929778 44.058108 2.0608565 43.581024 2.046875 43.105469 L 2.0195312 42.160156 z M 45.824219 44.302734 L 45.1875 45.001953 C 44.868256 45.352026 44.455252 45.626214 44.011719 45.783203 L 43.121094 46.099609 L 43.751953 47.880859 L 44.642578 47.564453 C 45.386894 47.301002 46.05439 46.856127 46.583984 46.275391 L 47.220703 45.576172 L 45.824219 44.302734 z M 3.8105469 45.865234 L 3.6445312 47.746094 L 4.5859375 47.830078 C 4.726854 47.842415 4.8620166 47.845415 4.9902344 47.845703 A 0.9449745 0.9449745 0 0 0 4.9921875 47.845703 L 6.5585938 47.845703 L 7.5039062 47.845703 L 7.5039062 45.957031 L 6.5585938 45.957031 L 4.9941406 45.957031 L 4.9921875 45.957031 C 4.9052068 45.956789 4.8256646 45.953719 4.7519531 45.947266 L 3.8105469 45.865234 z M 9.3925781 45.957031 L 9.3925781 47.845703 L 10.337891 47.845703 L 12.228516 47.845703 L 13.171875 47.845703 L 13.171875 45.957031 L 12.228516 45.957031 L 10.337891 45.957031 L 9.3925781 45.957031 z M 15.0625 45.957031 L 15.0625 47.845703 L 16.007812 47.845703 L 17.896484 47.845703 L 18.841797 47.845703 L 18.841797 45.957031 L 17.896484 45.957031 L 16.007812 45.957031 L 15.0625 45.957031 z M 20.732422 45.957031 L 20.732422 47.845703 L 21.675781 47.845703 L 23.566406 47.845703 L 24.511719 47.845703 L 24.511719 45.957031 L 23.566406 45.957031 L 21.675781 45.957031 L 20.732422 45.957031 z M 26.400391 45.957031 L 26.400391 47.845703 L 27.345703 47.845703 L 29.236328 47.845703 L 30.179688 47.845703 L 30.179688 45.957031 L 29.236328 45.957031 L 27.345703 45.957031 L 26.400391 45.957031 z M 32.070312 45.957031 L 32.070312 47.845703 L 33.015625 47.845703 L 34.904297 47.845703 L 35.849609 47.845703 L 35.849609 45.957031 L 34.904297 45.957031 L 33.015625 45.957031 L 32.070312 45.957031 z M 37.740234 45.957031 L 37.740234 47.845703 L 38.683594 47.845703 L 40.574219 47.845703 L 41.519531 47.845703 L 41.519531 45.957031 L 40.574219 45.957031 L 38.683594 45.957031 L 37.740234 45.957031 z "
     id="path842" />
</svg>
