<?xml version="1.0" encoding="UTF-8" standalone="no"?>
<svg
   xmlns:dc="http://purl.org/dc/elements/1.1/"
   xmlns:cc="http://creativecommons.org/ns#"
   xmlns:rdf="http://www.w3.org/1999/02/22-rdf-syntax-ns#"
   xmlns:svg="http://www.w3.org/2000/svg"
   xmlns="http://www.w3.org/2000/svg"
   xmlns:sodipodi="http://sodipodi.sourceforge.net/DTD/sodipodi-0.dtd"
   xmlns:inkscape="http://www.inkscape.org/namespaces/inkscape"
   width="56"
   height="56"
   viewBox="0 0 56 56"
   version="1.1"
   id="svg837"
   sodipodi:docname="ic_info.svg"
   inkscape:version="1.0beta1 (32d4812, 2019-09-19)">
  <metadata
     id="metadata843">
    <rdf:RDF>
      <cc:Work
         rdf:about="">
        <dc:format>image/svg+xml</dc:format>
        <dc:type
           rdf:resource="http://purl.org/dc/dcmitype/StillImage" />
        <dc:title></dc:title>
      </cc:Work>
    </rdf:RDF>
  </metadata>
  <defs
     id="defs841" />
  <sodipodi:namedview
     units="mm"
     pagecolor="#ffffff"
     bordercolor="#eeeeee"
     inkscape:document-rotation="0"
     borderopacity="1"
     objecttolerance="10"
     gridtolerance="10"
     guidetolerance="10"
     inkscape:pageopacity="0"
     inkscape:pageshadow="2"
     inkscape:window-width="1600"
     inkscape:window-height="907"
     id="namedview839"
     showgrid="false"
     inkscape:showpageshadow="false"
     inkscape:zoom="7.28125"
     inkscape:cx="24"
     inkscape:cy="24"
     inkscape:window-x="0"
     inkscape:window-y="0"
     inkscape:window-maximized="0"
     inkscape:current-layer="svg837" />
  <path
     d="m 27,23 h 2 v 2 h -2 z m 0,4 h 2 v 6 h -2 z m 1,-9 c -5.52,0 -10,4.48 -10,10 0,5.52 4.48,10 10,10 5.52,0 10,-4.48 10,-10 0,-5.52 -4.48,-10 -10,-10 z m 0,18 c -4.41,0 -8,-3.59 -8,-8 0,-4.41 3.59,-8 8,-8 4.41,0 8,3.59 8,8 0,4.41 -3.59,8 -8,8 z"
     id="path835"
     inkscape:connector-curvature="0"
     style="fill:#ffffff" />
  <path
     id="path844"
     d="M 4.7695312 0.31445312 L 4.7695312 2.203125 L 6.8476562 2.203125 L 6.8476562 0.31445312 L 4.7695312 0.31445312 z M 8.7382812 0.31445312 L 8.7382812 2.203125 L 12.517578 2.203125 L 12.517578 0.31445312 L 8.7382812 0.31445312 z M 14.408203 0.31445312 L 14.408203 2.203125 L 18.1875 2.203125 L 18.1875 0.31445312 L 14.408203 0.31445312 z M 20.076172 0.31445312 L 20.076172 2.203125 L 23.855469 2.203125 L 23.855469 0.31445312 L 20.076172 0.31445312 z M 25.746094 0.31445312 L 25.746094 2.203125 L 29.525391 2.203125 L 29.525391 0.31445312 L 25.746094 0.31445312 z M 31.416016 0.31445312 L 31.416016 2.203125 L 35.195312 2.203125 L 35.195312 0.31445312 L 31.416016 0.31445312 z M 37.083984 0.31445312 L 37.083984 2.203125 L 40.863281 2.203125 L 40.863281 0.31445312 L 37.083984 0.31445312 z M 42.753906 0.31445312 L 42.753906 2.203125 L 46.533203 2.203125 L 46.533203 0.31445312 L 42.753906 0.31445312 z M 48.423828 0.31445312 L 48.423828 2.203125 L 51.226562 2.203125 C 51.46919 2.203748 51.705822 2.2368166 51.921875 2.3007812 L 52.458984 0.48828125 C 52.051307 0.36758447 51.635759 0.31520416 51.228516 0.31445312 A 0.9449745 0.9449745 0 0 0 51.226562 0.31445312 L 48.423828 0.31445312 z M 2.8378906 0.7578125 C 2.6494969 0.84858154 2.4714688 0.95228136 2.3046875 1.0644531 C 1.1186392 1.8539964 0.38367441 3.1899957 0.36132812 4.6191406 L 2.25 4.6484375 C 2.2621257 3.872942 2.7053801 3.0681776 3.3535156 2.6367188 A 0.9449745 0.9449745 0 0 0 3.3574219 2.6328125 C 3.4566775 2.5659234 3.5577379 2.5093422 3.6582031 2.4609375 L 2.8378906 0.7578125 z M 54.46875 1.7324219 L 53.085938 3.0195312 C 53.503318 3.4681092 53.751039 4.107421 53.748047 4.7246094 A 0.9449745 0.9449745 0 0 0 53.748047 4.7304688 L 53.748047 5.9238281 L 55.636719 5.9238281 L 55.636719 4.734375 L 55.636719 4.7304688 C 55.641097 3.624272 55.226101 2.5463814 54.46875 1.7324219 z M 0.359375 6.5234375 L 0.359375 10.302734 L 2.2480469 10.302734 L 2.2480469 6.5234375 L 0.359375 6.5234375 z M 53.748047 7.8144531 L 53.748047 11.59375 L 55.636719 11.59375 L 55.636719 7.8144531 L 53.748047 7.8144531 z M 0.359375 12.193359 L 0.359375 15.972656 L 2.2480469 15.972656 L 2.2480469 12.193359 L 0.359375 12.193359 z M 53.748047 13.484375 L 53.748047 17.263672 L 55.636719 17.263672 L 55.636719 13.484375 L 53.748047 13.484375 z M 0.359375 17.861328 L 0.359375 21.640625 L 2.2480469 21.640625 L 2.2480469 17.861328 L 0.359375 17.861328 z M 53.748047 19.152344 L 53.748047 22.931641 L 55.636719 22.931641 L 55.636719 19.152344 L 53.748047 19.152344 z M 0.359375 23.53125 L 0.359375 27.310547 L 2.2480469 27.310547 L 2.2480469 23.53125 L 0.359375 23.53125 z M 53.748047 24.822266 L 53.748047 28.601562 L 55.636719 28.601562 L 55.636719 24.822266 L 53.748047 24.822266 z M 0.359375 29.201172 L 0.359375 32.980469 L 2.2480469 32.980469 L 2.2480469 29.201172 L 0.359375 29.201172 z M 53.748047 30.492188 L 53.748047 34.271484 L 55.636719 34.271484 L 55.636719 30.492188 L 53.748047 30.492188 z M 0.359375 34.869141 L 0.359375 38.648438 L 2.2480469 38.648438 L 2.2480469 34.869141 L 0.359375 34.869141 z M 53.748047 36.160156 L 53.748047 39.939453 L 55.636719 39.939453 L 55.636719 36.160156 L 53.748047 36.160156 z M 0.359375 40.539062 L 0.359375 44.318359 L 2.2480469 44.318359 L 2.2480469 40.539062 L 0.359375 40.539062 z M 53.748047 41.830078 L 53.748047 45.609375 L 55.636719 45.609375 L 55.636719 41.830078 L 53.748047 41.830078 z M 0.359375 46.208984 L 0.359375 49.988281 L 2.2480469 49.988281 L 2.2480469 46.208984 L 0.359375 46.208984 z M 53.748047 47.5 L 53.748047 51.234375 L 53.746094 51.255859 L 55.636719 51.302734 L 55.636719 51.269531 A 0.9449745 0.9449745 0 0 0 55.636719 51.246094 L 55.636719 47.5 L 53.748047 47.5 z M 2.2929688 51.724609 L 0.42773438 52.023438 C 0.45990292 52.225133 0.50915808 52.399206 0.5546875 52.550781 A 0.9449745 0.9449745 0 0 0 0.5546875 52.552734 C 0.97537723 53.946007 2.0785213 55.050978 3.4746094 55.46875 L 4.015625 53.658203 C 3.257797 53.431427 2.592893 52.76613 2.3632812 52.007812 L 2.3632812 52.005859 C 2.3292019 51.892202 2.3045581 51.797274 2.2929688 51.724609 z M 53.369141 52.582031 C 52.980499 53.222226 52.237068 53.687815 51.492188 53.757812 A 0.9449745 0.9449745 0 0 0 51.478516 53.759766 C 51.358375 53.772932 51.19021 53.771464 50.974609 53.771484 L 50.974609 55.660156 C 51.161533 55.660139 51.396959 55.666549 51.675781 55.636719 C 53.039591 55.506535 54.274013 54.732651 54.984375 53.5625 L 53.369141 52.582031 z M 5.6210938 53.771484 L 5.6210938 55.660156 L 9.4003906 55.660156 L 9.4003906 53.771484 L 5.6210938 53.771484 z M 11.289062 53.771484 L 11.289062 55.660156 L 15.068359 55.660156 L 15.068359 53.771484 L 11.289062 53.771484 z M 16.958984 53.771484 L 16.958984 55.660156 L 20.738281 55.660156 L 20.738281 53.771484 L 16.958984 53.771484 z M 22.628906 53.771484 L 22.628906 55.660156 L 26.408203 55.660156 L 26.408203 53.771484 L 22.628906 53.771484 z M 28.296875 53.771484 L 28.296875 55.660156 L 32.076172 55.660156 L 32.076172 53.771484 L 28.296875 53.771484 z M 33.966797 53.771484 L 33.966797 55.660156 L 37.746094 55.660156 L 37.746094 53.771484 L 33.966797 53.771484 z M 39.636719 53.771484 L 39.636719 55.660156 L 43.416016 55.660156 L 43.416016 53.771484 L 39.636719 53.771484 z M 45.304688 53.771484 L 45.304688 55.660156 L 49.083984 55.660156 L 49.083984 53.771484 L 45.304688 53.771484 z "
     style="color:#000000;font-style:normal;font-variant:normal;font-weight:normal;font-stretch:normal;font-size:medium;line-height:normal;font-family:sans-serif;font-variant-ligatures:normal;font-variant-position:normal;font-variant-caps:normal;font-variant-numeric:normal;font-variant-alternates:normal;font-variant-east-asian:normal;font-feature-settings:normal;font-variation-settings:normal;text-indent:0;text-align:start;text-decoration:none;text-decoration-line:none;text-decoration-style:solid;text-decoration-color:#000000;letter-spacing:normal;word-spacing:normal;text-transform:none;writing-mode:lr-tb;direction:ltr;text-orientation:mixed;dominant-baseline:auto;baseline-shift:baseline;text-anchor:start;white-space:normal;shape-padding:0;shape-margin:0;inline-size:0;clip-rule:nonzero;display:inline;overflow:visible;visibility:visible;isolation:auto;mix-blend-mode:normal;color-interpolation:sRGB;color-interpolation-filters:linearRGB;solid-color:#000000;solid-opacity:1;vector-effect:none;fill:#ffffff;fill-opacity:1;fill-rule:nonzero;stroke:none;stroke-width:1.88976;stroke-linecap:butt;stroke-linejoin:round;stroke-miterlimit:4;stroke-dasharray:3.77952, 1.88976000000000011;stroke-dashoffset:1.70078;stroke-opacity:1;filter-blend-mode:normal;filter-gaussianBlur-deviation:0;color-rendering:auto;image-rendering:auto;shape-rendering:auto;text-rendering:auto;enable-background:accumulate;stop-color:#000000;stop-opacity:1;opacity:1" />
</svg>
