<?xml version="1.0" encoding="utf-8"?>
<svg height="24" viewBox="0 -960 960 960" width="24" xmlns="http://www.w3.org/2000/svg">
  <path d="M 760 -600 L 760 -680 L 840 -680 L 840 -600 L 760 -600 Z M 760 -440 L 760 -520 L 840 -520 L 840 -440 L 760 -440 Z M 760 -280 L 760 -360 L 840 -360 L 840 -280 L 760 -280 Z M 760 -200 L 840 -200 C 840 -178 832.167 -159.167 816.5 -143.5 C 800.833 -127.833 782 -120 760 -120 L 760 -200 Z M 120 -600 L 120 -680 L 200 -680 L 200 -600 L 120 -600 Z M 760 -760 L 760 -840 C 782 -840 800.833 -832.167 816.5 -816.5 C 832.167 -800.833 840 -782 840 -760 L 760 -760 Z M 600 -120 L 600 -200 L 680 -200 L 680 -120 L 600 -120 Z M 600 -760 L 600 -840 L 680 -840 L 680 -760 L 600 -760 Z M 440 -760 L 440 -840 L 520 -840 L 520 -760 L 440 -760 Z M 280 -760 L 280 -840 L 360 -840 L 360 -760 L 280 -760 Z M 200 -760 L 120 -760 C 120 -782 127.833 -800.833 143.5 -816.5 C 159.167 -832.167 178 -840 200 -840 L 200 -760 Z M 440 -120 L 440 -200 L 520 -200 L 520 -120 L 440 -120 Z M 280 -120 L 280 -200 L 360 -200 L 360 -120 L 280 -120 Z M 200 -200 L 120 -200 C 120 -178 127.833 -159.167 143.5 -143.5 C 159.167 -127.833 178 -120 200 -120 L 200 -200 Z M 120 -440 L 120 -520 L 200 -520 L 200 -440 L 120 -440 Z M 120 -280 L 120 -360 L 200 -360 L 200 -280 L 120 -280 Z"/>
  <ellipse style="" cx="480" cy="-480" rx="118.587" ry="118.587"/>
</svg>