<?xml version="1.0" encoding="utf-8"?>
<svg width="64px" height="64px" viewBox="0 0 64 64" version="1.1" xmlns="http://www.w3.org/2000/svg">
<path d="M 39.14 32.94 C 39.18 32.64 39.2 32.33 39.2 32 C 39.2 31.68 39.18 31.36 39.13 31.06 L 41.16 29.48 C 41.34 29.34 41.39 29.07 41.28 28.87 L 39.36 25.55 C 39.24 25.33 38.99 25.26 38.77 25.33 L 36.38 26.29 C 35.88 25.91 35.35 25.59 34.76 25.35 L 34.4 22.81 C 34.36 22.57 34.16 22.4 33.92 22.4 L 30.08 22.4 C 29.84 22.4 29.65 22.57 29.61 22.81 L 29.25 25.35 C 28.66 25.59 28.12 25.92 27.63 26.29 L 25.24 25.33 C 25.02 25.25 24.77 25.33 24.65 25.55 L 22.74 28.87 C 22.62 29.08 22.66 29.34 22.86 29.48 L 24.89 31.06 C 24.84 31.36 24.8 31.69 24.8 32 C 24.8 32.31 24.82 32.64 24.87 32.94 L 22.84 34.52 C 22.66 34.66 22.61 34.93 22.72 35.13 L 24.64 38.45 C 24.76 38.67 25.01 38.74 25.23 38.67 L 27.62 37.71 C 28.12 38.09 28.65 38.41 29.24 38.65 L 29.6 41.19 C 29.65 41.43 29.84 41.6 30.08 41.6 L 33.92 41.6 C 34.16 41.6 34.36 41.43 34.39 41.19 L 34.75 38.65 C 35.34 38.41 35.88 38.09 36.37 37.71 L 38.76 38.67 C 38.98 38.75 39.23 38.67 39.35 38.45 L 41.27 35.13 C 41.39 34.91 41.34 34.66 41.15 34.52 L 39.14 32.94 Z M 32 35.6 C 30.02 35.6 28.4 33.98 28.4 32 C 28.4 30.02 30.02 28.4 32 28.4 C 33.98 28.4 35.6 30.02 35.6 32 C 35.6 33.98 33.98 35.6 32 35.6 Z" style="fill: rgb(255, 255, 255);"/>
</svg>