<?xml version="1.0" encoding="utf-8"?>
<svg width="64" height="64" viewBox="0 0 64 64" version="1.1" id="svg837" xmlns="http://www.w3.org/2000/svg">
  <path id="path844" d="M 4.7324219 0.22070312 L 4.7324219 2.109375 L 6.6210938 2.109375 L 6.6210938 0.22070312 L 4.7324219 0.22070312 z M 12.291016 0.22070312 L 12.291016 2.109375 L 14.179688 2.109375 L 14.179688 0.22070312 L 12.291016 0.22070312 z M 19.849609 0.22070312 L 19.849609 2.109375 L 21.740234 2.109375 L 21.740234 0.22070312 L 19.849609 0.22070312 z M 27.408203 0.22070312 L 27.408203 2.109375 L 29.298828 2.109375 L 29.298828 0.22070312 L 27.408203 0.22070312 z M 34.966797 0.22070312 L 34.966797 2.109375 L 36.857422 2.109375 L 36.857422 0.22070312 L 34.966797 0.22070312 z M 42.527344 0.22070312 L 42.527344 2.109375 L 44.416016 2.109375 L 44.416016 0.22070312 L 42.527344 0.22070312 z M 50.085938 0.22070312 L 50.085938 2.109375 L 51.974609 2.109375 L 51.974609 0.22070312 L 50.085938 0.22070312 z M 57.644531 0.22070312 L 57.644531 2.109375 L 59.259766 2.109375 L 59.412109 2.1132812 L 59.462891 2.1171875 L 59.605469 0.234375 L 59.53125 0.22851562 A 0.9449745 0.9449745 0 0 0 59.482422 0.22460938 L 59.296875 0.22070312 A 0.9449745 0.9449745 0 0 0 59.273438 0.22070312 L 57.644531 0.22070312 z M 0.42773438 3.25 C 0.12536204 4.0563329 0.14534878 4.8304553 0.16210938 5.4726562 L 2.0507812 5.4238281 C 2.0348472 4.8132957 2.0529938 4.2987906 2.1972656 3.9140625 L 0.42773438 3.25 z M 61.953125 5.0234375 L 61.953125 6.9140625 L 63.84375 6.9140625 L 63.84375 5.0234375 L 61.953125 5.0234375 z M 0.16015625 11.117188 L 0.16015625 13.007812 L 2.0507812 13.007812 L 2.0507812 11.117188 L 0.16015625 11.117188 z M 61.953125 12.583984 L 61.953125 14.472656 L 63.84375 14.472656 L 63.84375 12.583984 L 61.953125 12.583984 z M 0.16015625 18.675781 L 0.16015625 20.566406 L 2.0507812 20.566406 L 2.0507812 18.675781 L 0.16015625 18.675781 z M 61.953125 20.142578 L 61.953125 22.03125 L 63.84375 22.03125 L 63.84375 20.142578 L 61.953125 20.142578 z M 0.16015625 26.236328 L 0.16015625 28.125 L 2.0507812 28.125 L 2.0507812 26.236328 L 0.16015625 26.236328 z M 61.953125 27.701172 L 61.953125 29.591797 L 63.84375 29.591797 L 63.84375 27.701172 L 61.953125 27.701172 z M 0.16015625 33.794922 L 0.16015625 35.683594 L 2.0507812 35.683594 L 2.0507812 33.794922 L 0.16015625 33.794922 z M 61.953125 35.259766 L 61.953125 37.150391 L 63.84375 37.150391 L 63.84375 35.259766 L 61.953125 35.259766 z M 0.16015625 41.353516 L 0.16015625 43.244141 L 2.0507812 43.244141 L 2.0507812 41.353516 L 0.16015625 41.353516 z M 61.953125 42.820312 L 61.953125 44.708984 L 63.84375 44.708984 L 63.84375 42.820312 L 61.953125 42.820312 z M 0.16015625 48.912109 L 0.16015625 50.802734 L 2.0507812 50.802734 L 2.0507812 48.912109 L 0.16015625 48.912109 z M 61.953125 50.378906 L 61.953125 52.267578 L 63.84375 52.267578 L 63.84375 50.378906 L 61.953125 50.378906 z M 0.16015625 56.470703 L 0.16015625 58.361328 L 2.0507812 58.361328 L 2.0507812 56.470703 L 0.16015625 56.470703 z M 61.953125 57.9375 L 61.953125 59.197266 C 61.952053 59.362794 61.939168 59.516568 61.914062 59.650391 L 63.771484 59.998047 C 63.823578 59.720364 63.842561 59.453201 63.84375 59.201172 A 0.9449745 0.9449745 0 0 0 63.84375 59.197266 L 63.84375 57.9375 L 61.953125 57.9375 z M 4.1132812 61.806641 L 3.6367188 63.634766 C 4.4784285 63.854446 5.202864 63.751649 5.7285156 63.767578 L 5.7851562 61.876953 C 5.0642926 61.855108 4.4979511 61.907037 4.1132812 61.806641 z M 11.425781 61.876953 L 11.425781 63.767578 L 13.316406 63.767578 L 13.316406 61.876953 L 11.425781 61.876953 z M 18.986328 61.876953 L 18.986328 63.767578 L 20.875 63.767578 L 20.875 61.876953 L 18.986328 61.876953 z M 26.544922 61.876953 L 26.544922 63.767578 L 28.433594 63.767578 L 28.433594 61.876953 L 26.544922 61.876953 z M 34.103516 61.876953 L 34.103516 63.767578 L 35.994141 63.767578 L 35.994141 61.876953 L 34.103516 61.876953 z M 41.662109 61.876953 L 41.662109 63.767578 L 43.552734 63.767578 L 43.552734 61.876953 L 41.662109 61.876953 z M 49.222656 61.876953 L 49.222656 63.767578 L 51.111328 63.767578 L 51.111328 61.876953 L 49.222656 61.876953 z M 56.78125 61.876953 L 56.78125 63.767578 L 58.669922 63.767578 L 58.669922 61.876953 L 56.78125 61.876953 z " style="color:#000000;font-style:normal;font-variant:normal;font-weight:normal;font-stretch:normal;font-size:medium;line-height:normal;font-family:sans-serif;font-variant-ligatures:normal;font-variant-position:normal;font-variant-caps:normal;font-variant-numeric:normal;font-variant-alternates:normal;font-variant-east-asian:normal;font-feature-settings:normal;font-variation-settings:normal;text-indent:0;text-align:start;text-decoration:none;text-decoration-line:none;text-decoration-style:solid;text-decoration-color:#000000;letter-spacing:normal;word-spacing:normal;text-transform:none;writing-mode:lr-tb;direction:ltr;text-orientation:mixed;dominant-baseline:auto;baseline-shift:baseline;text-anchor:start;white-space:normal;shape-padding:0;shape-margin:0;inline-size:0;clip-rule:nonzero;display:inline;overflow:visible;visibility:visible;isolation:auto;mix-blend-mode:normal;color-interpolation:sRGB;color-interpolation-filters:linearRGB;solid-color:#000000;solid-opacity:1;vector-effect:none;fill:#ffffff;fill-opacity:1;fill-rule:nonzero;stroke:none;stroke-width:1.88976;stroke-linecap:butt;stroke-linejoin:round;stroke-miterlimit:4;stroke-dasharray:1.88976, 5.66927999999999965;stroke-dashoffset:0;stroke-opacity:1;filter-blend-mode:normal;filter-gaussianBlur-deviation:0;color-rendering:auto;image-rendering:auto;shape-rendering:auto;text-rendering:auto;enable-background:accumulate;stop-color:#000000;stop-opacity:1;opacity:1"/>
  <path d="M 39 26.41 L 37.59 25 L 32 30.59 L 26.41 25 L 25 26.41 L 30.59 32 L 25 37.59 L 26.41 39 L 32 33.41 L 37.59 39 L 39 37.59 L 33.41 32 Z" style="fill: rgb(255, 251, 251);"/>
</svg>