<?xml version="1.0" encoding="UTF-8" standalone="no"?>
<svg
   xmlns:dc="http://purl.org/dc/elements/1.1/"
   xmlns:cc="http://creativecommons.org/ns#"
   xmlns:rdf="http://www.w3.org/1999/02/22-rdf-syntax-ns#"
   xmlns:svg="http://www.w3.org/2000/svg"
   xmlns="http://www.w3.org/2000/svg"
   xmlns:sodipodi="http://sodipodi.sourceforge.net/DTD/sodipodi-0.dtd"
   xmlns:inkscape="http://www.inkscape.org/namespaces/inkscape"
   inkscape:version="1.0beta1 (32d4812, 2019-09-19)"
   sodipodi:docname="ic_remove.svg"
   id="svg837"
   version="1.1"
   viewBox="0 0 56 56"
   height="56"
   width="56">
  <metadata
     id="metadata843">
    <rdf:RDF>
      <cc:Work
         rdf:about="">
        <dc:format>image/svg+xml</dc:format>
        <dc:type
           rdf:resource="http://purl.org/dc/dcmitype/StillImage" />
        <dc:title></dc:title>
      </cc:Work>
    </rdf:RDF>
  </metadata>
  <defs
     id="defs841" />
  <sodipodi:namedview
     inkscape:current-layer="svg837"
     inkscape:window-maximized="0"
     inkscape:window-y="0"
     inkscape:window-x="0"
     inkscape:cy="24"
     inkscape:cx="24"
     inkscape:zoom="5.1486213"
     inkscape:showpageshadow="false"
     showgrid="false"
     id="namedview839"
     inkscape:window-height="907"
     inkscape:window-width="1600"
     inkscape:pageshadow="2"
     inkscape:pageopacity="0"
     guidetolerance="10"
     gridtolerance="10"
     objecttolerance="10"
     borderopacity="1"
     inkscape:document-rotation="0"
     bordercolor="#eeeeee"
     pagecolor="#ffffff" />
  <path
     inkscape:connector-curvature="0"
     id="path835"
     d="m 23,27 v 2 h 10 v -2 z m 5,-9 c -5.52,0 -10,4.48 -10,10 0,5.52 4.48,10 10,10 5.52,0 10,-4.48 10,-10 0,-5.52 -4.48,-10 -10,-10 z m 0,18 c -4.41,0 -8,-3.59 -8,-8 0,-4.41 3.59,-8 8,-8 4.41,0 8,3.59 8,8 0,4.41 -3.59,8 -8,8 z"
     style="fill:#ffffff" />
  <path
     style="color:#000000;font-style:normal;font-variant:normal;font-weight:normal;font-stretch:normal;font-size:medium;line-height:normal;font-family:sans-serif;font-variant-ligatures:normal;font-variant-position:normal;font-variant-caps:normal;font-variant-numeric:normal;font-variant-alternates:normal;font-variant-east-asian:normal;font-feature-settings:normal;font-variation-settings:normal;text-indent:0;text-align:start;text-decoration:none;text-decoration-line:none;text-decoration-style:solid;text-decoration-color:#000000;letter-spacing:normal;word-spacing:normal;text-transform:none;writing-mode:lr-tb;direction:ltr;text-orientation:mixed;dominant-baseline:auto;baseline-shift:baseline;text-anchor:start;white-space:normal;shape-padding:0;shape-margin:0;inline-size:0;clip-rule:nonzero;display:inline;overflow:visible;visibility:visible;opacity:1;isolation:auto;mix-blend-mode:normal;color-interpolation:sRGB;color-interpolation-filters:linearRGB;solid-color:#000000;solid-opacity:1;vector-effect:none;fill:#ffffff;fill-opacity:1;fill-rule:nonzero;stroke:none;stroke-width:1.88976;stroke-linecap:butt;stroke-linejoin:round;stroke-miterlimit:4;stroke-dasharray:3.77952, 1.88976000000000011;stroke-dashoffset:1.70078;stroke-opacity:1;color-rendering:auto;image-rendering:auto;shape-rendering:auto;text-rendering:auto;enable-background:accumulate;stop-color:#000000;stop-opacity:1"
     d="M 4.771467,0.32683989 V 2.2155119 H 6.849592 V 0.32683989 Z m 3.96875,0 V 2.2155119 h 3.779297 V 0.32683989 Z m 5.669922,0 V 2.2155119 h 3.779297 V 0.32683989 Z m 5.667969,0 V 2.2155119 h 3.779297 V 0.32683989 Z m 5.669922,0 V 2.2155119 h 3.779297 V 0.32683989 Z m 5.669922,0 V 2.2155119 h 3.779296 V 0.32683989 Z m 5.667968,0 V 2.2155119 h 3.779297 V 0.32683989 Z m 5.669922,0 V 2.2155119 h 3.779297 V 0.32683989 Z m 5.669922,0 V 2.2155119 h 2.802734 c 0.242628,6.23e-4 0.47926,0.03369 0.695313,0.09766 L 52.46092,0.50067189 c -0.407677,-0.120697 -0.823225,-0.173077 -1.230468,-0.173828 a 0.9449745,0.9449745 0 0 0 -0.002,0 z m -45.5859376,0.44336 c -0.1883937,0.09077 -0.3664218,0.194468 -0.5332031,0.30664001 -1.1860483,0.789543 -1.92101312,2.125543 -1.94335942,3.554688 l 1.88867192,0.0293 c 0.012126,-0.775496 0.4553801,-1.58026 1.1035156,-2.011719 a 0.9449745,0.9449745 0 0 0 0.00391,-0.0039 c 0.099256,-0.06689 0.200316,-0.12347 0.3007812,-0.171875 z M 54.470686,1.7448089 53.087874,3.0319179 c 0.41738,0.448578 0.665101,1.08789 0.662109,1.705078 a 0.9449745,0.9449745 0 0 0 0,0.0059 v 1.19336 h 1.888672 v -1.189454 -0.0039 c 0.0044,-1.106197 -0.410618,-2.184088 -1.167969,-2.998047 z M 0.36131078,6.5358249 V 10.315121 H 2.2499827 V 6.5358249 Z M 53.749983,7.8268399 v 3.7792971 h 1.888672 V 7.8268399 Z M 0.36131078,12.205746 v 3.779297 H 2.2499827 V 12.205746 Z M 53.749983,13.496762 v 3.779297 h 1.888672 V 13.496762 Z M 0.36131078,17.873715 v 3.779297 H 2.2499827 V 17.873715 Z M 53.749983,19.164731 v 3.779297 h 1.888672 V 19.164731 Z M 0.36131078,23.543637 v 3.779297 H 2.2499827 V 23.543637 Z M 53.749983,24.834653 v 3.779296 h 1.888672 V 24.834653 Z M 0.36131078,29.213559 v 3.779297 H 2.2499827 V 29.213559 Z M 53.749983,30.504575 v 3.779296 h 1.888672 V 30.504575 Z M 0.36131078,34.881528 v 3.779297 H 2.2499827 V 34.881528 Z M 53.749983,36.172543 v 3.779297 h 1.888672 V 36.172543 Z M 0.36131078,40.551449 v 3.779297 H 2.2499827 V 40.551449 Z M 53.749983,41.842465 v 3.779297 h 1.888672 V 41.842465 Z M 0.36131078,46.221371 v 3.779297 H 2.2499827 V 46.221371 Z M 53.749983,47.512387 v 3.734375 l -0.002,0.02148 1.890625,0.04687 v -0.0332 a 0.9449745,0.9449745 0 0 0 0,-0.02344 V 47.512387 Z M 2.2949046,51.736996 0.42967018,52.035825 c 0.032169,0.201695 0.081424,0.375768 0.1269531,0.527343 a 0.9449745,0.9449745 0 0 0 0,0.002 c 0.4206897,1.393273 1.52383382,2.498244 2.91992192,2.916016 L 4.0175608,53.67059 C 3.2597328,53.443814 2.5948288,52.778517 2.365217,52.020199 v -0.002 C 2.331138,51.904542 2.306494,51.809614 2.294905,51.736949 Z m 51.0761724,0.857422 c -0.388642,0.640195 -1.132073,1.105784 -1.876953,1.175781 a 0.9449745,0.9449745 0 0 0 -0.01367,0.002 c -0.120141,0.01317 -0.288306,0.0117 -0.503907,0.01172 v 1.888672 c 0.186924,-1.7e-5 0.42235,0.0064 0.701172,-0.02344 1.36381,-0.130184 2.598232,-0.904068 3.308594,-2.074219 z M 5.6230296,53.783871 v 1.888672 h 3.7792968 v -1.888672 z m 5.6679684,0 v 1.888672 h 3.779297 v -1.888672 z m 5.669922,0 v 1.888672 h 3.779297 v -1.888672 z m 5.669922,0 v 1.888672 h 3.779297 v -1.888672 z m 5.667969,0 v 1.888672 h 3.779297 v -1.888672 z m 5.669922,0 v 1.888672 h 3.779297 v -1.888672 z m 5.669922,0 v 1.888672 h 3.779297 v -1.888672 z m 5.667969,0 v 1.888672 h 3.779296 v -1.888672 z"
     id="path844"
     inkscape:connector-curvature="0" />
</svg>
