<?xml version="1.0" encoding="utf-8"?>
<svg height="24" viewBox="0 -960 960 960" width="24" xmlns="http://www.w3.org/2000/svg">
  <path d="M 480 -320 C 524 -320 561.667 -335.667 593 -367 C 624.333 -398.333 640 -436 640 -480 C 640 -524 624.333 -561.667 593 -593 C 561.667 -624.333 524 -640 480 -640 C 436 -640 398.333 -624.333 367 -593 C 335.667 -561.667 320 -524 320 -480 C 320 -436 335.667 -398.333 367 -367 C 398.333 -335.667 436 -320 480 -320 Z M 480 -240 C 413.333 -240 356.667 -263.333 310 -310 C 263.333 -356.667 240 -413.333 240 -480 C 240 -546.667 263.333 -603.333 310 -650 C 356.667 -696.667 413.333 -720 480 -720 C 546.667 -720 603.333 -696.667 650 -650 C 696.667 -603.333 720 -546.667 720 -480 C 720 -413.333 696.667 -356.667 650 -310 C 603.333 -263.333 546.667 -240 480 -240 Z"/>
</svg>