<?xml version="1.0" encoding="UTF-8" standalone="no"?>
<svg
   xmlns:dc="http://purl.org/dc/elements/1.1/"
   xmlns:cc="http://creativecommons.org/ns#"
   xmlns:rdf="http://www.w3.org/1999/02/22-rdf-syntax-ns#"
   xmlns:svg="http://www.w3.org/2000/svg"
   xmlns="http://www.w3.org/2000/svg"
   xmlns:sodipodi="http://sodipodi.sourceforge.net/DTD/sodipodi-0.dtd"
   xmlns:inkscape="http://www.inkscape.org/namespaces/inkscape"
   width="48"
   height="48"
   viewBox="0 0 48 48"
   version="1.1"
   id="svg837"
   sodipodi:docname="ic_remove.svg"
   inkscape:version="1.0beta1 (32d4812, 2019-09-19)">
  <metadata
     id="metadata843">
    <rdf:RDF>
      <cc:Work
         rdf:about="">
        <dc:format>image/svg+xml</dc:format>
        <dc:type
           rdf:resource="http://purl.org/dc/dcmitype/StillImage" />
        <dc:title />
      </cc:Work>
    </rdf:RDF>
  </metadata>
  <defs
     id="defs841" />
  <sodipodi:namedview
     pagecolor="#ffffff"
     bordercolor="#eeeeee"
     inkscape:document-rotation="0"
     borderopacity="1"
     objecttolerance="10"
     gridtolerance="10"
     guidetolerance="10"
     inkscape:pageopacity="0"
     inkscape:pageshadow="2"
     inkscape:window-width="1600"
     inkscape:window-height="907"
     id="namedview839"
     showgrid="false"
     inkscape:showpageshadow="false"
     inkscape:zoom="7.3229662"
     inkscape:cx="23.987305"
     inkscape:cy="24.017578"
     inkscape:window-x="0"
     inkscape:window-y="0"
     inkscape:window-maximized="0"
     inkscape:current-layer="svg837" />
  <path
     style="fill:#ffffff"
     d="m 19,23 v 2 h 10 v -2 z m 5,-9 c -5.52,0 -10,4.48 -10,10 0,5.52 4.48,10 10,10 5.52,0 10,-4.48 10,-10 0,-5.52 -4.48,-10 -10,-10 z m 0,18 c -4.41,0 -8,-3.59 -8,-8 0,-4.41 3.59,-8 8,-8 4.41,0 8,3.59 8,8 0,4.41 -3.59,8 -8,8 z"
     id="path835"
     inkscape:connector-curvature="0" />
  <path
     style="color:#000000;font-style:normal;font-variant:normal;font-weight:normal;font-stretch:normal;font-size:medium;line-height:normal;font-family:sans-serif;font-variant-ligatures:normal;font-variant-position:normal;font-variant-caps:normal;font-variant-numeric:normal;font-variant-alternates:normal;font-variant-east-asian:normal;font-feature-settings:normal;font-variation-settings:normal;text-indent:0;text-align:start;text-decoration:none;text-decoration-line:none;text-decoration-style:solid;text-decoration-color:#000000;letter-spacing:normal;word-spacing:normal;text-transform:none;writing-mode:lr-tb;direction:ltr;text-orientation:mixed;dominant-baseline:auto;baseline-shift:baseline;text-anchor:start;white-space:normal;shape-padding:0;shape-margin:0;inline-size:0;clip-rule:nonzero;display:inline;overflow:visible;visibility:visible;isolation:auto;mix-blend-mode:normal;color-interpolation:sRGB;color-interpolation-filters:linearRGB;solid-color:#000000;solid-opacity:1;vector-effect:none;fill:#ffffff;fill-opacity:1;fill-rule:nonzero;stroke:none;stroke-width:1.88976;stroke-linecap:square;stroke-linejoin:round;stroke-miterlimit:4;stroke-dasharray:1.88976, 3.77952999999999983;stroke-dashoffset:0;stroke-opacity:1;filter-blend-mode:normal;filter-gaussianBlur-deviation:0;color-rendering:auto;image-rendering:auto;shape-rendering:auto;text-rendering:auto;enable-background:accumulate;stop-color:#000000;stop-opacity:1;opacity:1"
     d="M 4.046875 0.15429688 L 4.046875 0.24804688 C 4.0352232 0.2503468 4.0233588 0.24956524 4.0117188 0.25195312 L 3.0859375 0.44140625 L 3.4667969 2.2929688 L 4.390625 2.1035156 C 4.5859883 2.063438 4.787828 2.0429672 4.9902344 2.0429688 L 5.9355469 2.0429688 L 6.8808594 2.0429688 L 7.8261719 2.0429688 L 7.8261719 0.15429688 L 6.8808594 0.15429688 L 5.9355469 0.15429688 L 4.9902344 0.15429688 L 4.046875 0.15429688 z M 9.7148438 0.15429688 L 9.7148438 2.0429688 L 10.660156 2.0429688 L 12.550781 2.0429688 L 13.494141 2.0429688 L 13.494141 0.15429688 L 12.550781 0.15429688 L 10.660156 0.15429688 L 9.7148438 0.15429688 z M 15.384766 0.15429688 L 15.384766 2.0429688 L 16.330078 2.0429688 L 18.21875 2.0429688 L 19.164062 2.0429688 L 19.164062 0.15429688 L 18.21875 0.15429688 L 16.330078 0.15429688 L 15.384766 0.15429688 z M 21.054688 0.15429688 L 21.054688 2.0429688 L 21.998047 2.0429688 L 23.888672 2.0429688 L 24.833984 2.0429688 L 24.833984 0.15429688 L 23.888672 0.15429688 L 21.998047 0.15429688 L 21.054688 0.15429688 z M 26.722656 0.15429688 L 26.722656 2.0429688 L 27.667969 2.0429688 L 29.558594 2.0429688 L 30.501953 2.0429688 L 30.501953 0.15429688 L 29.558594 0.15429688 L 27.667969 0.15429688 L 26.722656 0.15429688 z M 32.392578 0.15429688 L 32.392578 2.0429688 L 33.337891 2.0429688 L 35.226562 2.0429688 L 36.171875 2.0429688 L 36.171875 0.15429688 L 35.226562 0.15429688 L 33.337891 0.15429688 L 32.392578 0.15429688 z M 38.0625 0.15429688 L 38.0625 2.0429688 L 39.005859 2.0429688 L 40.896484 2.0429688 L 41.841797 2.0429688 L 41.841797 0.15429688 L 40.896484 0.15429688 L 39.005859 0.15429688 L 38.0625 0.15429688 z M 44.152344 0.19921875 L 43.376953 1.921875 L 44.238281 2.3085938 C 44.66644 2.5011211 45.054924 2.8113218 45.341797 3.1855469 L 45.916016 3.9355469 L 47.416016 2.7851562 L 46.841797 2.0351562 C 46.362705 1.410182 45.733992 0.90983902 45.013672 0.5859375 L 44.152344 0.19921875 z M 0.90429688 2.2460938 L 0.53125 3.1132812 C 0.20632435 3.8660928 0.12635699 4.6474654 0.15429688 5.3730469 L 0.19140625 6.3183594 L 2.0800781 6.2460938 L 2.0429688 5.3007812 C 2.0224778 4.7686429 2.087978 4.2729137 2.265625 3.8613281 L 2.640625 2.9941406 L 0.90429688 2.2460938 z M 45.957031 5.2636719 L 45.957031 6.2089844 L 45.957031 8.0996094 L 45.957031 9.0429688 L 47.845703 9.0429688 L 47.845703 8.0996094 L 47.845703 6.2089844 L 47.845703 5.2636719 L 45.957031 5.2636719 z M 0.15429688 8.171875 L 0.15429688 9.1171875 L 0.15429688 11.007812 L 0.15429688 11.951172 L 2.0429688 11.951172 L 2.0429688 11.007812 L 2.0429688 9.1171875 L 2.0429688 8.171875 L 0.15429688 8.171875 z M 45.957031 10.933594 L 45.957031 11.878906 L 45.957031 13.767578 L 45.957031 14.712891 L 47.845703 14.712891 L 47.845703 13.767578 L 47.845703 11.878906 L 47.845703 10.933594 L 45.957031 10.933594 z M 0.15429688 13.841797 L 0.15429688 14.787109 L 0.15429688 16.675781 L 0.15429688 17.621094 L 2.0429688 17.621094 L 2.0429688 16.675781 L 2.0429688 14.787109 L 2.0429688 13.841797 L 0.15429688 13.841797 z M 45.957031 16.603516 L 45.957031 17.548828 L 45.957031 19.4375 L 45.957031 20.382812 L 47.845703 20.382812 L 47.845703 19.4375 L 47.845703 17.548828 L 47.845703 16.603516 L 45.957031 16.603516 z M 0.15429688 19.511719 L 0.15429688 20.455078 L 0.15429688 22.345703 L 0.15429688 23.291016 L 2.0429688 23.291016 L 2.0429688 22.345703 L 2.0429688 20.455078 L 2.0429688 19.511719 L 0.15429688 19.511719 z M 45.957031 22.271484 L 45.957031 23.216797 L 45.957031 25.107422 L 45.957031 26.052734 L 47.845703 26.052734 L 47.845703 25.107422 L 47.845703 23.216797 L 47.845703 22.271484 L 45.957031 22.271484 z M 0.15429688 25.179688 L 0.15429688 26.125 L 0.15429688 28.015625 L 0.15429688 28.958984 L 2.0429688 28.958984 L 2.0429688 28.015625 L 2.0429688 26.125 L 2.0429688 25.179688 L 0.15429688 25.179688 z M 45.957031 27.941406 L 45.957031 28.886719 L 45.957031 30.775391 L 45.957031 31.720703 L 47.845703 31.720703 L 47.845703 30.775391 L 47.845703 28.886719 L 47.845703 27.941406 L 45.957031 27.941406 z M 0.15429688 30.849609 L 0.15429688 31.794922 L 0.15429688 33.683594 L 0.15429688 34.628906 L 2.0429688 34.628906 L 2.0429688 33.683594 L 2.0429688 31.794922 L 2.0429688 30.849609 L 0.15429688 30.849609 z M 45.957031 33.611328 L 45.957031 34.556641 L 45.957031 36.445312 L 45.957031 37.390625 L 47.845703 37.390625 L 47.845703 36.445312 L 47.845703 34.556641 L 47.845703 33.611328 L 45.957031 33.611328 z M 0.15429688 36.519531 L 0.15429688 37.462891 L 0.15429688 39.353516 L 0.15429688 40.298828 L 2.0429688 40.298828 L 2.0429688 39.353516 L 2.0429688 37.462891 L 2.0429688 36.519531 L 0.15429688 36.519531 z M 45.957031 39.279297 L 45.957031 40.224609 L 45.957031 42.115234 L 45.957031 43.060547 L 47.845703 43.060547 L 47.845703 42.115234 L 47.845703 40.224609 L 47.845703 39.279297 L 45.957031 39.279297 z M 2.0175781 42.160156 L 0.12890625 42.216797 L 0.15625 43.160156 C 0.17926723 43.943046 0.3917341 44.718799 0.78710938 45.40625 L 1.2578125 46.224609 L 2.8964844 45.283203 L 2.4238281 44.462891 C 2.1910247 44.058108 2.0589034 43.581024 2.0449219 43.105469 L 2.0175781 42.160156 z M 45.822266 44.302734 L 45.185547 45.001953 C 44.866303 45.352026 44.453299 45.626214 44.009766 45.783203 L 43.119141 46.099609 L 43.75 47.880859 L 44.640625 47.564453 C 45.384941 47.301002 46.052437 46.856127 46.582031 46.275391 L 47.21875 45.576172 L 45.822266 44.302734 z M 3.8085938 45.865234 L 3.6425781 47.746094 L 4.5839844 47.830078 C 4.7249011 47.842415 4.8600633 47.845415 4.9882812 47.845703 A 0.9449745 0.9449745 0 0 0 4.9902344 47.845703 L 6.5566406 47.845703 L 7.5019531 47.845703 L 7.5019531 45.957031 L 6.5566406 45.957031 L 4.9921875 45.957031 L 4.9902344 45.957031 C 4.9032536 45.956789 4.8237115 45.953719 4.75 45.947266 L 3.8085938 45.865234 z M 9.390625 45.957031 L 9.390625 47.845703 L 10.335938 47.845703 L 12.226562 47.845703 L 13.169922 47.845703 L 13.169922 45.957031 L 12.226562 45.957031 L 10.335938 45.957031 L 9.390625 45.957031 z M 15.060547 45.957031 L 15.060547 47.845703 L 16.005859 47.845703 L 17.894531 47.845703 L 18.839844 47.845703 L 18.839844 45.957031 L 17.894531 45.957031 L 16.005859 45.957031 L 15.060547 45.957031 z M 20.730469 45.957031 L 20.730469 47.845703 L 21.673828 47.845703 L 23.564453 47.845703 L 24.509766 47.845703 L 24.509766 45.957031 L 23.564453 45.957031 L 21.673828 45.957031 L 20.730469 45.957031 z M 26.398438 45.957031 L 26.398438 47.845703 L 27.34375 47.845703 L 29.234375 47.845703 L 30.177734 47.845703 L 30.177734 45.957031 L 29.234375 45.957031 L 27.34375 45.957031 L 26.398438 45.957031 z M 32.068359 45.957031 L 32.068359 47.845703 L 33.013672 47.845703 L 34.902344 47.845703 L 35.847656 47.845703 L 35.847656 45.957031 L 34.902344 45.957031 L 33.013672 45.957031 L 32.068359 45.957031 z M 37.738281 45.957031 L 37.738281 47.845703 L 38.681641 47.845703 L 40.572266 47.845703 L 41.517578 47.845703 L 41.517578 45.957031 L 40.572266 45.957031 L 38.681641 45.957031 L 37.738281 45.957031 z "
     id="path842" />
</svg>
