<?xml version="1.0" encoding="utf-8"?>
<svg height="24" viewBox="0 -960 960 960" width="24" xmlns="http://www.w3.org/2000/svg">
  <path d="M 800 -480 C 800 -569.333 769 -645 707 -707 C 654.475 -759.525 592.142 -789.801 520 -797.828 L 520 -640 L 440 -640 L 440 -797.828 C 367.858 -789.801 305.525 -759.525 253 -707 C 191 -645 160 -569.333 160 -480 C 160 -390.667 191 -315 253 -253 C 315 -191 390.667 -160 480 -160 C 569.333 -160 645 -191 707 -253 C 769 -315 800 -390.667 800 -480 Z M 880 -480 C 880 -424.667 869.5 -372.667 848.5 -324 C 827.5 -275.333 799 -233 763 -197 C 727 -161 684.667 -132.5 636 -111.5 C 587.333 -90.5 535.333 -80 480 -80 C 424.667 -80 372.667 -90.5 324 -111.5 C 275.333 -132.5 233 -161 197 -197 C 161 -233 132.5 -275.333 111.5 -324 C 90.5 -372.667 80 -424.667 80 -480 C 80 -535.333 90.5 -587.333 111.5 -636 C 132.5 -684.667 161 -727 197 -763 C 233 -799 275.333 -827.5 324 -848.5 C 372.667 -869.5 424.667 -880 480 -880 C 535.333 -880 587.333 -869.5 636 -848.5 C 684.667 -827.5 727 -799 763 -763 C 799 -727 827.5 -684.667 848.5 -636 C 869.5 -587.333 880 -535.333 880 -480 Z" style="transform-origin: 480px -480px;"/>
</svg>