<?xml version="1.0" encoding="utf-8"?>
<svg viewBox="0 0 160 240" xmlns="http://www.w3.org/2000/svg" xmlns:xlink="http://www.w3.org/1999/xlink">
<defs>
<pattern x="0" y="0" width="25" height="25" patternUnits="userSpaceOnUse" viewBox="0 0 100 100" patternTransform="matrix(-0.057523, 0.166837, -0.161141, -0.055559, 93.625305, 593.325928)" id="pattern-0">
<rect width="15.358" height="154.244" style="fill: black;" transform="matrix(0.707107, -0.707107, 0.707107, 0.707107, -9.963383, 0.896367)"/>
<rect width="15.358" height="154.244" style="fill: black;" transform="matrix(0.707107, -0.707107, 0.707107, 0.707107, -60, 50.859749)"/>
<rect width="15.358" height="154.244" style="fill: black;" transform="matrix(0.707107, -0.707107, 0.707107, 0.707107, 40, -49.140251)"/>
</pattern>
<pattern id="pattern-0-6" patternTransform="matrix(-0.057523, 0.166837, -0.161141, -0.055559, -86.374695, 593.325928)" xlink:href="#pattern-0"/>
<pattern id="pattern-0-5" patternTransform="matrix(-0.057523, 0.166837, -0.161141, -0.055559, -86.374695, 593.325928)" xlink:href="#pattern-0"/>
<pattern id="pattern-0-4" patternTransform="matrix(-0.057523, 0.166837, -0.161141, -0.055559, -86.374695, 593.325928)" xlink:href="#pattern-0"/>
<pattern id="pattern-0-3" patternTransform="matrix(-0.057523, 0.166837, -0.161141, -0.055559, -86.374695, 593.325928)" xlink:href="#pattern-0"/>
<pattern id="pattern-0-2" patternTransform="matrix(-0.057523, 0.166837, -0.161141, -0.055559, -86.374695, 593.325928)" xlink:href="#pattern-0"/>
<pattern id="pattern-0-1" patternTransform="matrix(-0.057523, 0.166837, -0.161141, -0.055559, -86.374695, 593.325928)" xlink:href="#pattern-0"/>
<pattern id="pattern-0-0" patternTransform="matrix(-0.057523, 0.166837, -0.161141, -0.055559, -86.374695, 593.325928)" xlink:href="#pattern-0"/>
</defs>
<rect width="77.192" height="152.446" rx="6" ry="6" style="stroke: rgb(0, 0, 0); fill: none;" x="40.043" y="-187.721"/>
<path d="M -263.761 194.927 C -262.31 189.414 -259.884 182.897 -256.596 179.663 C -251.599 174.751 -251.216 165.459 -248.881 159.965 C -251.166 154.762 -252.911 142.381 -253.915 134.241 C -253.963 133.56 -253.986 132.888 -253.983 132.227 C -253.811 133.816 -253.4 135.51 -252.71 137.292 C -252.236 139.07 -247.68 157.826 -243.387 157.814 L -243.403 158.236 C -246.324 163.516 -244.74 174.891 -249.596 179.664 C -252.891 182.906 -255.322 189.447 -256.771 194.969 L -263.761 194.927 Z M -244.033 118.532 L -241.847 118.482 L -241.853 118.631 C -245.317 118.2 -248.726 119.508 -251.061 122.112 C -249.412 119.98 -247.068 118.65 -244.033 118.532 Z" style="fill: url(#pattern-0-0);"/>
<path d="M -87.651 194.968 C -86.216 189.053 -83.456 179.23 -80.218 175.598 C -75.555 170.368 -78.233 157.718 -73.791 153.64 C -78.211 153.295 -78.225 133.983 -77.947 131.4 C -79.147 121.243 -73.206 115.519 -66.991 115.308 L -59.197 115.27 L -59.197 115.312 C -65.687 115.04 -72.197 120.812 -70.947 131.4 C -71.224 133.983 -71.21 153.296 -66.791 153.64 C -71.233 157.718 -68.554 170.369 -73.218 175.598 C -76.723 179.53 -79.71 188.945 -81.011 194.945 L -87.651 194.968 Z" style="fill: url(#pattern-0-1);"/>
<path d="M 269.794 194.908 C 271.714 189.139 274.096 172.346 272.261 168.478 C 267.366 167.73 258.504 156.818 255.822 150.133 C 256.265 150.537 256.735 150.932 257.234 151.319 C 257.837 151.846 268.325 164.652 274.877 164.736 C 275.898 168.462 277.27 170.587 277.729 177.579 C 277.975 181.318 276.553 188.497 275.485 194.81 L 269.794 194.908 Z" style="fill: url(#pattern-0-2);"/>
<path d="M 448.134 194.745 C 447.749 190.654 446.122 184.793 442.657 181.879 C 435.578 177.351 428.735 164.7 428.327 164.349 C 433.275 169.362 435.225 172.936 443.858 176.88 C 448.44 180.733 452.519 188.111 455.351 194.837 L 448.134 194.745 Z" style="fill: url(#pattern-0-3);"/>
<path d="M 83.67 195.383 C 83.77 189.25 84.675 180.671 87.009 176.462 C 90.408 170.335 85.012 158.583 88.448 153.628 C 84.062 154.264 79.6 133.844 79.502 132.847 C 75.628 121.871 82.039 114.461 89.211 114.399 C 89.211 114.399 96.504 113.984 94.439 114.282 C 87.872 115.228 82.886 122.592 86.505 132.846 C 86.603 133.844 91.065 154.263 95.451 153.627 C 92.015 158.582 97.412 170.334 94.012 176.461 C 91.689 180.649 90.783 189.166 90.675 195.292 L 83.67 195.383 Z" style="fill: url(#pattern-0-4);"/>
<path d="M 628.525 176.95 C 631.725 178.533 649.093 180.854 657.33 178.062 C 657.74 177.923 657.187 183.05 657.161 185.448 C 650.094 184.969 639.149 185.384 634.442 184.144 C 627.666 182.358 625.841 180.605 622.379 178.893 C 623.547 172.445 612.977 159.706 612.575 159.014 C 611.332 156.551 609.814 154.584 608.15 153.074 C 613.822 157.574 621.008 162.903 628.525 176.95 Z" style="fill: url(#pattern-0-5);"/>
<path d="M -256.748 194.725 L -313.957 194.725 C -317.271 194.725 -319.957 192.039 -319.957 188.725 L -319.957 48.279 C -319.957 44.965 -317.271 42.279 -313.957 42.279 L -248.765 42.279 C -245.451 42.279 -242.765 44.965 -242.765 48.279 L -242.765 118.557" style="stroke: rgb(0, 0, 0); fill: none;"/>
<path d="M -258.33 203.694 C -258.371 200.562 -255.261 185.237 -249.596 179.664 C -244.599 174.752 -246.421 162.849 -243.137 157.792 C -247.502 158.561 -252.227 139.105 -252.71 137.292 C -259.617 119.467 -238.502 110.412 -231.028 128.165 C -231.132 128.229 -223.163 145.513 -220.405 150.578 C -217.882 156.419 -221.203 179.275 -216.641 187.155" style="stroke: rgb(0, 0, 0); fill: none;"/>
<path d="M -246.544 135.743 C -247.475 134.933 -249.237 131.297 -249.428 128.531 C -249.863 114.915 -234.206 114.724 -233.832 128.674 L -233.593 136.843 C -234.71 138.373 -244.769 137.229 -246.544 135.743 Z" style="stroke: rgb(0, 0, 0); fill: none;" transform="matrix(0.92167, -0.387974, 0.387974, 0.92167, -68.546163, -83.681882)"/>
<path d="M -234.033 153.133 C -231.378 152.005 -225.035 152.327 -222.41 153.472" style="stroke: rgb(0, 0, 0); fill: none;" transform="matrix(0.968928, -0.247341, 0.247341, 0.968928, -44.92255, -51.6961)"/>
<path style="stroke: rgb(0, 0, 0); fill: none;" d="M -241.49 134.902 C -241.375 129.583 -231.33 129.691 -231.446 135.202" transform="matrix(0.92167, -0.387974, 0.387974, 0.92167, -70.160117, -81.317936)"/>
<rect width="160" height="240" style="fill: none; stroke: rgb(204, 204, 204);" x="180"/>
<rect width="160" height="240" style="fill: none; stroke: rgb(204, 204, 204);" x="360"/>
<rect width="160" height="240" style="fill: none; stroke: rgb(204, 204, 204);" x="540"/>
<rect width="160" height="240" style="fill: none; stroke: rgb(204, 204, 204);" x="720"/>
<path d="M -81.14 194.725 L -133.957 194.725 C -137.271 194.725 -139.957 192.039 -139.957 188.725 L -139.957 48.279 C -139.957 44.965 -137.271 42.279 -133.957 42.279 L -68.765 42.279 C -65.451 42.279 -62.765 44.965 -62.765 48.279 L -62.83 115.674" style="stroke: rgb(0, 0, 0); fill: none;"/>
<path d="M -81.708 199.672 C -81.785 196.403 -77.98 180.94 -73.218 175.598 C -68.554 170.369 -71.233 157.718 -66.791 153.64 C -71.21 153.296 -71.224 133.983 -70.947 131.4 C -73.188 112.415 -50.482 108.915 -47.674 127.971 C -47.79 128.007 -44.385 146.732 -42.978 152.326 C -41.992 158.611 -43.53 174.563 -41.078 183.332" style="stroke: rgb(0, 0, 0); fill: none;"/>
<path d="M -62.796 132.941 C -63.727 132.131 -65.489 128.495 -65.68 125.729 C -66.115 112.113 -50.458 111.922 -50.084 125.872 L -49.845 134.041 C -50.962 135.571 -61.021 134.427 -62.796 132.941 Z" style="stroke: rgb(0, 0, 0); fill: none;" transform="matrix(0.989319, -0.145764, 0.145764, 0.989319, -18.854202, -7.084042)"/>
<path d="M -56.951 152.856 C -54.296 151.728 -47.953 152.05 -45.328 153.195" style="stroke: rgb(0, 0, 0); fill: none;" transform="matrix(0.999998, 0.002212, -0.002212, 0.999998, 0.337592, 0.113494)"/>
<path style="stroke: rgb(0, 0, 0); fill: none;" d="M -59.193 133.195 C -59.078 127.876 -49.033 127.984 -49.149 133.495" transform="matrix(0.989319, -0.145764, 0.145764, 0.989319, -19.730313, -6.492799)"/>
<path d="M 91.026 201.812 C 90.232 198.64 90.542 182.719 94.012 176.46 C 97.412 170.333 92.016 158.582 95.452 153.626 C 91.065 154.263 86.603 133.843 86.506 132.845 C 80.143 114.818 101.523 106.409 108.454 124.381 C 108.349 124.442 115.79 141.959 118.393 147.106 C 120.737 153.021 122.746 168.92 127.066 176.935" style="stroke: rgb(0, 0, 0); fill: none;"/>
<path d="M 96.104 132.926 C 94.944 132.506 91.991 129.747 90.818 127.235 C 85.513 114.688 100.052 108.876 105.421 121.757 L 108.583 129.293 C 108.092 131.122 98.295 133.674 96.104 132.926 Z" style="stroke: rgb(0, 0, 0); fill: none;"/>
<path d="M 104.875 150.686 C 107.22 149.006 113.481 147.939 116.292 148.485" style="stroke: rgb(0, 0, 0); fill: none;"/>
<path style="stroke: rgb(0, 0, 0); fill: none;" d="M 98.832 132.637 C 97.026 127.633 106.437 124.119 108.312 129.303"/>
<path d="M 90.542 194.725 L 46.043 194.725 C 42.729 194.725 40.043 192.039 40.043 188.725 L 40.043 48.279 C 40.043 44.965 42.729 42.279 46.043 42.279 L 111.235 42.279 C 114.549 42.279 117.235 44.965 117.235 48.279 L 117.17 144.265" style="stroke: rgb(0, 0, 0); fill: none;"/>
<path d="M 275.376 194.725 L 226.043 194.725 C 222.729 194.725 220.043 192.039 220.043 188.725 L 220.043 48.279 C 220.043 44.965 222.729 42.279 226.043 42.279 L 291.235 42.279 C 294.549 42.279 297.235 44.965 297.235 48.279 L 297.17 152.441" style="stroke: rgb(0, 0, 0); fill: none;"/>
<circle style="stroke: rgb(0, 0, 0); fill: none;" cx="236.334" cy="138.502" r="6.569"/>
<path d="M 287.513 138.502 C 287.513 139.736 287.173 140.89 286.582 141.876 C 283.532 140.241 279.023 137.525 275.267 135.196 C 276.405 133.244 278.522 131.933 280.944 131.933 C 284.572 131.933 287.513 134.874 287.513 138.502 Z" style="stroke: rgb(0, 0, 0); fill: none;"/>
<circle style="stroke: rgb(0, 0, 0); fill: none;" cx="258.639" cy="116.197" r="6.569"/>
<path d="M 265.208 160.807 C 265.208 164.435 262.267 167.376 258.639 167.376 C 255.011 167.376 252.07 164.435 252.07 160.807 C 252.07 157.179 255.011 154.238 258.639 154.238 C 259.115 154.238 259.579 154.289 260.027 154.385 C 261.388 155.839 263.136 157.618 265.032 159.288 C 265.147 159.776 265.208 160.284 265.208 160.807 Z" style="stroke: rgb(0, 0, 0); fill: none;"/>
<circle style="stroke: rgb(0, 0, 0); fill: none;" cx="242.867" cy="122.731" r="6.569"/>
<circle style="stroke: rgb(0, 0, 0); fill: none;" cx="274.41" cy="122.73" r="6.569"/>
<circle style="stroke: rgb(0, 0, 0); fill: none;" cx="242.866" cy="154.274" r="6.569"/>
<circle style="stroke: rgb(0, 0, 0); fill: none;" cx="236.334" cy="-61.498" r="6.569"/>
<circle style="stroke: rgb(0, 0, 0); fill: none;" cx="280.944" cy="-61.498" r="6.569"/>
<circle style="stroke: rgb(0, 0, 0); fill: none;" cx="258.639" cy="-83.803" r="6.569"/>
<circle style="stroke: rgb(0, 0, 0); fill: none;" cx="258.639" cy="-39.193" r="6.569"/>
<circle style="stroke: rgb(0, 0, 0); fill: none;" cx="242.867" cy="-77.269" r="6.569"/>
<circle style="stroke: rgb(0, 0, 0); fill: none;" cx="274.411" cy="-45.725" r="6.569"/>
<circle style="stroke: rgb(0, 0, 0); fill: none;" cx="274.41" cy="-77.27" r="6.569"/>
<circle style="stroke: rgb(0, 0, 0); fill: none;" cx="242.866" cy="-45.726" r="6.569"/>
<path d="M 274.969 206.647 C 272.585 204.409 278.199 184.72 277.729 177.579 C 277.27 170.587 275.898 168.462 274.877 164.736 C 268.325 164.652 257.837 151.846 257.234 151.319 C 242.126 139.606 252.907 119.476 268.463 130.835 C 268.406 130.942 284.836 141.378 289.09 143.107 C 295.187 147.146 303.972 163.207 306.751 172.126 C 309.925 179.564 310.731 181.262 313.56 182.599" style="stroke: rgb(0, 0, 0); fill: none;"/>
<path d="M 253.4 142.25 C 252.255 142.711 250.995 139.846 250.804 137.08 C 250.772 124.905 266.477 124.886 266.4 137.223 L 266.291 143.291 C 265.45 143.075 257.502 140.598 253.4 142.25 Z" style="stroke: rgb(0, 0, 0); fill: none;" transform="matrix(0.589725, -0.807604, 0.807604, 0.589725, -3.433517, 264.491749)"/>
<path d="M 275.492 149.888 C 278.147 148.76 284.49 149.082 287.115 150.227" style="stroke: rgb(0, 0, 0); fill: none;" transform="matrix(0.702721, -0.711465, 0.711465, 0.702721, -22.885902, 244.642426)"/>
<path style="stroke: rgb(0, 0, 0); fill: none;" d="M 258.242 138.773 C 258.929 134.87 268.744 135.295 269.547 139.745" transform="matrix(0.589725, -0.807604, 0.807604, 0.589725, -3.119385, 269.709391)"/>
<path d="M 244.783 192.27 C 245.184 189.025 258.132 183.987 263.622 179.397 C 268.998 174.903 274.529 168.302 279.518 164.915 C 275.196 163.93 278.578 143.105 278.648 142.307 C 279.198 123.198 302.172 123.045 302.172 142.307 C 302.052 142.325 302.691 161.347 303.268 167.086 C 303.327 173.448 293.672 190.268 288.108 197.772 C 283.972 204.722 284.317 208.505 284.905 211.579" style="fill: none;" transform="matrix(0.589725, -0.807604, 0.807604, 0.589725, -24.663652, 290.947743)"/>
<path d="M 602.124 194.725 L 586.043 194.725 C 582.729 194.725 580.043 192.039 580.043 188.725 L 580.043 48.279 C 580.043 44.965 582.729 42.279 586.043 42.279 L 651.235 42.279 C 654.549 42.279 657.235 44.965 657.235 48.279 L 657.17 185.123" style="stroke: rgb(0, 0, 0); fill: none;"/>
<circle style="stroke: rgb(0, 0, 0); fill: none;" cx="639.317" cy="146.922" r="5.877"/>
<circle style="stroke: rgb(0, 0, 0); fill: none;" cx="610.228" cy="117.833" r="5.877"/>
<circle style="stroke: rgb(0, 0, 0); fill: none;" cx="634.407" cy="122.743" r="2.901"/>
<path d="M 611.79 154.287 C 611.79 155.21 611.65 156.099 611.39 156.936 C 607.004 150.12 600.288 148.08 595.267 149.596 C 596.84 147.054 599.654 145.36 602.863 145.36 C 607.793 145.36 611.79 149.357 611.79 154.287 Z" style="stroke: rgb(0, 0, 0); fill: none;"/>
<circle style="stroke: rgb(0, 0, 0); fill: none;" cx="639.987" cy="131.966" r="4.389"/>
<circle style="stroke: rgb(0, 0, 0); fill: none;" cx="597.284" cy="131.894" r="7.439"/>
<circle style="stroke: rgb(0, 0, 0); fill: none;" cx="625.183" cy="117.163" r="4.389"/>
<circle style="stroke: rgb(0, 0, 0); fill: none;" cx="625.257" cy="159.866" r="7.439"/>
<circle style="stroke: rgb(0, 0, 0); fill: none;" cx="639.317" cy="-53.078" r="5.877"/>
<circle style="stroke: rgb(0, 0, 0); fill: none;" cx="610.228" cy="-82.167" r="5.877"/>
<circle style="stroke: rgb(0, 0, 0); fill: none;" cx="634.407" cy="-77.257" r="2.901"/>
<circle style="stroke: rgb(0, 0, 0); fill: none;" cx="602.863" cy="-45.713" r="8.927"/>
<circle style="stroke: rgb(0, 0, 0); fill: none;" cx="639.987" cy="-68.034" r="4.389"/>
<circle style="stroke: rgb(0, 0, 0); fill: none;" cx="597.284" cy="-68.106" r="7.439"/>
<circle style="stroke: rgb(0, 0, 0); fill: none;" cx="625.183" cy="-82.837" r="4.389"/>
<circle style="stroke: rgb(0, 0, 0); fill: none;" cx="625.257" cy="-40.134" r="7.439"/>
<path d="M 663.503 186.981 C 661.761 184.213 641.362 185.967 634.442 184.144 C 627.666 182.358 625.841 180.605 622.379 178.893 C 623.547 172.445 612.977 159.706 612.575 159.013 C 603.96 141.948 582.142 148.689 590.325 166.127 C 590.441 166.092 597.55 184.211 598.436 188.717 C 601.237 195.473 607.99 202.387 616.214 206.817" style="stroke: rgb(0, 0, 0); fill: none;"/>
<path d="M 591.707 150.739 C 590.562 150.278 589.302 153.143 589.111 155.909 C 589.079 168.084 604.784 168.103 604.707 155.766 L 604.598 149.698 C 603.757 149.914 595.809 152.391 591.707 150.739 Z" style="stroke: rgb(0, 0, 0); fill: none;" transform="matrix(-0.905292, 0.42479, -0.42479, -0.905292, 1204.132681, 46.262924)"/>
<path d="M 600.589 182.15 C 603.244 183.278 609.587 182.956 612.212 181.811" style="stroke: rgb(0, 0, 0); fill: none;" transform="matrix(-0.832481, 0.554054, -0.554054, -0.832481, 1212.238353, -1.860785)"/>
<path style="stroke: rgb(0, 0, 0); fill: none;" d="M 592.503 162.147 C 593.19 166.05 603.005 165.625 603.808 161.175" transform="matrix(-0.905292, 0.42479, -0.42479, -0.905292, 1208.89952, 56.462855)"/>
<path d="M 455.245 194.725 L 406.043 194.725 C 402.729 194.725 400.043 192.039 400.043 188.725 L 400.043 48.279 C 400.043 44.965 402.729 42.279 406.043 42.279 L 471.235 42.279 C 474.549 42.279 477.235 44.965 477.235 48.279 L 477.17 165.172" style="stroke: rgb(0, 0, 0); fill: none;"/>
<path d="M 458.301 202.979 C 456.01 195.285 450.456 182.428 443.858 176.88 C 435.225 172.936 427.669 163.345 427.066 162.817 C 411.958 151.104 424.756 131.708 440.686 142.16 C 447.531 145.244 456.084 147.404 462.253 152.266 C 469.332 157.847 477.075 165.09 482.543 170.854" style="stroke: rgb(0, 0, 0); fill: none;"/>
<path d="M 422.566 155.258 C 421.421 155.719 420.165 152.848 419.974 150.082 C 419.942 137.907 437.182 138.159 437.214 150.258 C 437.405 152.178 436.871 155.398 435.427 155.689 C 434.586 155.473 426.668 153.606 422.566 155.258 Z" style="stroke: rgb(0, 0, 0); fill: none;" transform="matrix(0.589725, -0.807604, 0.807604, 0.589725, 56.018532, 407.024997)"/>
<path d="M 445.579 162.978 C 448.234 161.85 454.577 162.172 457.202 163.317" style="stroke: rgb(0, 0, 0); fill: none;" transform="matrix(0.582288, -0.812983, 0.812983, 0.582288, 56.200053, 434.975081)"/>
<path style="stroke: rgb(0, 0, 0); fill: none;" d="M 427.775 152.333 C 428.462 148.43 438.277 148.855 439.08 153.305" transform="matrix(0.589725, -0.807604, 0.807604, 0.589725, 55.484642, 412.188252)"/>
<path d="M 424.783 192.27 C 425.184 189.025 438.132 183.987 443.622 179.397 C 448.998 174.903 454.529 168.302 459.518 164.915 C 455.196 163.93 458.578 143.105 458.648 142.307 C 459.198 123.198 482.172 123.045 482.172 142.307 C 482.052 142.325 482.691 161.347 483.268 167.086 C 483.327 173.448 473.672 190.268 468.108 197.772 C 463.972 204.722 464.317 208.505 464.905 211.579" style="fill: none;" transform="matrix(0.589725, -0.807604, 0.807604, 0.589725, 49.185833, 436.316471)"/>
<circle r="4.973" cy="-77.241" cx="454.445" style="fill: none; stroke: rgb(0, 0, 0);"/>
<circle r="5.753" cy="-83.58" cx="441.671" style="fill: none; stroke: rgb(0, 0, 0);"/>
<circle r="6.533" cy="-79.874" cx="425.972" style="fill: none; stroke: rgb(0, 0, 0);"/>
<circle r="7.313" cy="-64.467" cx="416.513" style="fill: none; stroke: rgb(0, 0, 0);"/>
<circle r="7.996" cy="-45.648" cx="422.852" style="fill: none; stroke: rgb(0, 0, 0);"/>
<circle r="7.313" cy="-39.31" cx="441.671" style="fill: none; stroke: rgb(0, 0, 0);"/>
<circle r="6.533" cy="-48.768" cx="457.078" style="fill: none; stroke: rgb(0, 0, 0);"/>
<circle r="5.753" cy="-64.467" cx="460.783" style="fill: none; stroke: rgb(0, 0, 0);"/>
<circle r="4.973" cy="122.759" cx="454.445" style="fill: none; stroke: rgb(0, 0, 0);"/>
<circle r="5.753" cy="116.42" cx="441.671" style="fill: none; stroke: rgb(0, 0, 0);"/>
<circle r="6.533" cy="120.126" cx="425.972" style="fill: none; stroke: rgb(0, 0, 0);"/>
<circle r="7.313" cy="135.533" cx="416.513" style="fill: none; stroke: rgb(0, 0, 0);"/>
<path d="M 422.852 162.348 C 418.436 162.348 414.856 158.768 414.856 154.352 C 414.856 150.56 417.495 147.385 421.037 146.563 C 419.379 151.108 420.456 156.963 425.821 161.779 C 424.903 162.146 423.901 162.348 422.852 162.348 Z" style="fill: none; stroke: rgb(0, 0, 0);"/>
<path d="M 463.611 151.232 C 463.611 151.89 463.514 152.526 463.332 153.126 C 462.971 152.835 462.611 152.548 462.253 152.266 C 459.325 149.958 455.86 148.259 452.295 146.781 C 453.488 145.5 455.19 144.699 457.078 144.699 C 460.686 144.699 463.611 147.624 463.611 151.232 Z" style="fill: none; stroke: rgb(0, 0, 0);"/>
<circle r="5.753" cy="135.533" cx="460.783" style="fill: none; stroke: rgb(0, 0, 0);"/>
<path d="M 760.23 172.659 C 762.821 168.389 768.543 165.657 776.368 167.767 C 784.837 170.066 795.187 170.477 797.769 175.109 C 806.013 174.418 811.983 179.572 819.059 181.769 C 824.432 183.438 831.705 184.96 837.302 184.518 L 837.264 186.698 C 831.676 187.649 824.103 186.642 818.501 185.34 C 811.284 183.662 804.956 178.955 796.784 180.242 C 793.872 175.81 783.52 176.151 774.906 174.473 C 767.956 173.132 762.873 175.358 760.182 178.905 L 760.23 172.659 Z" style="fill: url(#pattern-0-6);"/>
<circle style="stroke: rgb(0, 0, 0); fill: none; stroke-dasharray: 4;" cx="819.317" cy="146.922" r="5.877"/>
<circle style="stroke: rgb(0, 0, 0); fill: none; stroke-dasharray: 4;" cx="790.228" cy="117.833" r="5.877"/>
<circle style="stroke: rgb(0, 0, 0); fill: none; stroke-dasharray: 4;" cx="814.407" cy="122.743" r="2.901"/>
<circle style="stroke: rgb(0, 0, 0); fill: none;" cx="782.863" cy="154.287" r="8.927"/>
<circle style="stroke: rgb(0, 0, 0); fill: none; stroke-dasharray: 4;" cx="819.987" cy="131.966" r="4.389"/>
<circle style="stroke: rgb(0, 0, 0); fill: none; stroke-dasharray: 4;" cx="777.284" cy="131.894" r="7.439"/>
<circle style="stroke: rgb(0, 0, 0); fill: none; stroke-dasharray: 4;" cx="805.183" cy="117.163" r="4.389"/>
<circle style="stroke: rgb(0, 0, 0); fill: none; stroke-dasharray: 4;" cx="805.257" cy="159.866" r="7.439"/>
<path d="M 760.043 178.817 L 760.043 48.279 C 760.043 44.965 762.729 42.279 766.043 42.279 L 831.235 42.279 C 834.549 42.279 837.235 44.965 837.235 48.279 L 837.17 186.777" style="stroke: rgb(0, 0, 0); fill: none;"/>
<path d="M 840.221 185.927 C 834.639 188.023 825.173 186.891 818.501 185.34 C 811.284 183.662 804.956 178.955 796.784 180.242 C 793.872 175.81 783.52 176.151 774.906 174.473 C 756.137 170.851 750.988 193.241 769.787 197.433 C 769.831 197.32 788.257 202.083 793.734 203.896 C 797.477 204.766 801.503 209.454 809.266 213.38" style="stroke: rgb(0, 0, 0); fill: none;"/>
<path d="M 762.635 179.314 C 761.704 180.122 759.942 183.757 759.751 186.52 C 759.316 200.123 774.973 200.315 775.347 186.379 L 775.586 178.214 C 774.469 176.687 764.41 177.828 762.635 179.314 Z" style="stroke: rgb(0, 0, 0); fill: none;" transform="matrix(-0.217632, 0.976031, -0.976031, -0.217632, 1117.3803, -521.404138)"/>
<path d="M 788.866 195.606 C 791.521 196.734 797.864 196.412 800.489 195.267" style="stroke: rgb(0, 0, 0); fill: none;" transform="matrix(-0.070831, 0.997488, -0.997488, -0.070831, 1046.260429, -583.02694)"/>
<path style="stroke: rgb(0, 0, 0); fill: none;" d="M 769.397 189.463 C 769.416 194.348 779.102 193.591 779.197 189.027" transform="matrix(-0.217632, 0.976031, -0.976031, -0.217632, 1129.147435, -523.273937)"/>
<rect width="160" height="240" style="fill: none; stroke: rgb(204, 204, 204);" y="260"/>
<g transform="matrix(0.975507, -0.219972, 0.219972, 0.975507, -399.963562, 367.842682)">
<path d="M 458.292 199.672 C 458.215 196.403 462.02 180.94 466.782 175.598 C 471.446 170.369 468.767 157.718 473.209 153.64 C 468.79 153.296 468.929 132.395 469.053 131.4 C 466.812 112.415 489.518 108.915 492.326 127.971 C 492.21 128.007 495.615 146.732 497.022 152.326 C 498.008 158.611 496.47 174.563 498.922 183.332" style="stroke: rgb(0, 0, 0); fill: none;"/>
<path d="M 477.204 132.941 C 476.273 132.131 474.511 128.495 474.32 125.729 C 473.885 112.113 489.542 111.922 489.916 125.872 L 490.155 134.041 C 489.038 135.571 478.979 134.427 477.204 132.941 Z" style="stroke: rgb(0, 0, 0); fill: none;" transform="matrix(0.989319, -0.145764, 0.145764, 0.989319, -13.08667, 71.628534)"/>
<path d="M 483.049 152.856 C 485.704 151.728 492.047 152.05 494.672 153.195" style="stroke: rgb(0, 0, 0); fill: none;" transform="matrix(0.999998, 0.002212, -0.002212, 0.999998, 0.338913, -1.080986)"/>
<path style="stroke: rgb(0, 0, 0); fill: none;" d="M 480.807 133.195 C 480.922 127.876 490.967 127.984 490.851 133.495" transform="matrix(0.989319, -0.145764, 0.145764, 0.989319, -13.962782, 72.21978)"/>
</g>
<path d="M 90.542 454.725 L 46.043 454.725 C 42.729 454.725 40.043 452.039 40.043 448.725 L 40.043 308.279 C 40.043 304.965 42.729 302.279 46.043 302.279 L 111.235 302.279 C 114.549 302.279 117.235 304.965 117.235 308.279 L 117.17 404.265" style="stroke: rgb(0, 0, 0); fill: none;"/>
<path d="M 269.794 454.908 C 271.714 449.139 274.096 432.346 272.261 428.478 C 267.366 427.73 258.504 416.818 255.822 410.133 C 256.265 410.537 256.735 410.932 257.234 411.319 C 257.837 411.846 268.325 424.652 274.877 424.736 C 275.898 428.462 277.27 430.587 277.729 437.579 C 277.975 441.318 276.553 448.497 275.485 454.81 L 269.794 454.908 Z" style="fill: url(#pattern-0);"/>
<rect width="160" height="240" style="fill: none; stroke: rgb(204, 204, 204);" x="180" y="260"/>
<path d="M 275.376 454.725 L 226.043 454.725 C 222.729 454.725 220.043 452.039 220.043 448.725 L 220.043 308.279 C 220.043 304.965 222.729 302.279 226.043 302.279 L 291.235 302.279 C 294.549 302.279 297.235 304.965 297.235 308.279 L 297.17 412.441" style="stroke: rgb(0, 0, 0); fill: none;"/>
<path d="M 274.969 466.647 C 272.585 464.409 278.199 444.72 277.729 437.579 C 277.27 430.587 275.898 428.462 274.877 424.736 C 268.325 424.652 257.837 411.846 257.234 411.319 C 242.126 399.606 252.907 379.476 268.463 390.835 C 268.406 390.942 284.836 401.378 289.09 403.107 C 295.187 407.146 303.972 423.207 306.751 432.126 C 309.925 439.564 310.731 441.262 313.56 442.599" style="stroke: rgb(0, 0, 0); fill: none;"/>
<path d="M 253.4 402.25 C 252.255 402.711 250.995 399.846 250.804 397.08 C 250.772 384.905 266.477 384.886 266.4 397.223 L 266.291 403.291 C 265.45 403.075 257.502 400.598 253.4 402.25 Z" style="stroke: rgb(0, 0, 0); fill: none;" transform="matrix(0.589725, -0.807604, 0.807604, 0.589725, -213.410572, 371.163229)"/>
<path d="M 275.492 409.888 C 278.147 408.76 284.49 409.082 287.115 410.227" style="stroke: rgb(0, 0, 0); fill: none;" transform="matrix(0.702721, -0.711465, 0.711465, 0.702721, -207.866872, 321.934898)"/>
<path style="stroke: rgb(0, 0, 0); fill: none;" d="M 258.242 398.773 C 258.929 394.87 268.744 395.295 269.547 399.745" transform="matrix(0.589725, -0.807604, 0.807604, 0.589725, -213.096445, 376.380874)"/>
<path d="M 244.783 452.27 C 245.184 449.025 258.132 443.987 263.622 439.397 C 268.998 434.903 274.529 428.302 279.518 424.915 C 275.196 423.93 278.578 403.105 278.648 402.307 C 279.198 383.198 302.172 383.045 302.172 402.307 C 302.052 402.325 302.691 421.347 303.268 427.086 C 303.327 433.448 293.672 450.268 288.108 457.772 C 283.972 464.722 284.317 468.505 284.905 471.579" style="fill: none;" transform="matrix(0.589725, -0.807604, 0.807604, 0.589725, -234.640719, 397.619229)"/>
<g transform="matrix(1, 0, 0, 1, -504.221436, -547.936035)">
<line style="stroke: rgb(0, 0, 0);" x1="738.061" y1="396.231" x2="747.63" y2="396.231"/>
<line style="stroke: rgb(0, 0, 0);" x1="778.061" y1="396.231" x2="787.63" y2="396.231"/>
<line style="stroke: rgb(0, 0, 0);" x1="762.845" y1="421.015" x2="762.845" y2="411.446"/>
<line style="stroke: rgb(0, 0, 0);" x1="762.845" y1="381.015" x2="762.845" y2="371.446"/>
<line style="stroke: rgb(0, 0, 0);" x1="780.371" y1="413.756" x2="773.604" y2="406.99"/>
<line style="stroke: rgb(0, 0, 0);" x1="752.086" y1="385.472" x2="745.319" y2="378.705"/>
<line style="stroke: rgb(0, 0, 0);" x1="780.37" y1="378.706" x2="773.604" y2="385.472"/>
<line style="stroke: rgb(0, 0, 0);" x1="752.086" y1="406.99" x2="745.32" y2="413.756"/>
</g>
<g transform="matrix(1.131682, -0.303233, 0.303233, 1.131682, -722.441711, 180.745438)" style="">
<line style="stroke: rgb(0, 0, 0);" x1="738.061" y1="396.231" x2="747.63" y2="396.231"/>
<line style="stroke: rgb(0, 0, 0);" x1="778.061" y1="396.231" x2="787.63" y2="396.231"/>
<line style="stroke: rgb(0, 0, 0);" x1="762.845" y1="381.015" x2="762.845" y2="371.446"/>
<line style="stroke: rgb(0, 0, 0);" x1="752.086" y1="385.472" x2="745.319" y2="378.705"/>
<line style="stroke: rgb(0, 0, 0);" x1="780.37" y1="378.706" x2="773.604" y2="385.472"/>
<line style="stroke: rgb(0, 0, 0);" x1="752.086" y1="406.99" x2="745.32" y2="413.756"/>
</g>
<circle style="stroke: rgb(0, 0, 0); fill: none;" cx="413.139" cy="337.197" r="6.569"/>
<circle style="stroke: rgb(0, 0, 0); fill: none;" cx="430.139" cy="337.197" r="6.569"/>
<circle style="stroke: rgb(0, 0, 0); fill: none;" cx="447.139" cy="337.197" r="6.569"/>
<circle style="stroke: rgb(0, 0, 0); fill: none;" cx="464.139" cy="337.197" r="6.569"/>
<circle style="stroke: rgb(0, 0, 0); fill: none;" cx="413.139" cy="355.197" r="6.569"/>
<circle style="stroke: rgb(0, 0, 0); fill: none;" cx="430.139" cy="355.197" r="6.569"/>
<circle style="stroke: rgb(0, 0, 0); fill: none;" cx="447.139" cy="355.197" r="6.569"/>
<circle style="stroke: rgb(0, 0, 0); fill: none;" cx="464.139" cy="355.197" r="6.569"/>
<circle style="stroke: rgb(0, 0, 0); fill: none;" cx="413.139" cy="373.197" r="6.569"/>
<circle style="stroke: rgb(0, 0, 0); fill: none;" cx="430.139" cy="373.197" r="6.569"/>
<path d="M 453.708 373.197 C 453.708 373.741 453.642 374.269 453.517 374.774 C 450.897 375.497 448.57 377.232 447.074 379.766 C 443.476 379.731 440.57 376.803 440.57 373.197 C 440.57 369.569 443.511 366.628 447.139 366.628 C 450.767 366.628 453.708 369.569 453.708 373.197 Z" style="stroke: rgb(0, 0, 0); fill: none;"/>
<path d="M 470.708 373.197 C 470.708 376.243 468.635 378.805 465.823 379.548 C 463.504 376.481 460.592 374.876 457.697 374.49 C 457.614 374.072 457.57 373.639 457.57 373.197 C 457.57 369.569 460.511 366.628 464.139 366.628 C 467.767 366.628 470.708 369.569 470.708 373.197 Z" style="stroke: rgb(0, 0, 0); fill: none;"/>
<rect width="160" height="240" style="fill: none; stroke: rgb(204, 204, 204);" x="360" y="260"/>
<path d="M 443.67 454.795 C 443.77 448.662 444.675 440.671 447.009 436.462 C 450.408 430.335 445.012 418.583 448.448 413.628 C 444.062 414.264 439.6 393.844 439.502 392.847 C 435.628 381.871 442.039 374.461 449.211 374.399 L 461.092 374.211 L 461.121 375.545 C 452.496 371.268 441.749 379.369 446.505 392.846 C 446.603 393.844 451.065 414.263 455.451 413.627 C 452.015 418.582 457.412 430.334 454.012 436.461 C 451.689 440.649 450.783 448.578 450.675 454.704 L 443.67 454.795 Z" style="fill: url(#pattern-0);"/>
<path d="M 451.026 461.812 C 450.232 458.64 450.542 442.719 454.012 436.46 C 457.412 430.334 452.016 418.582 455.452 413.626 C 451.065 414.263 446.603 393.843 446.505 392.845 C 440.143 374.818 461.523 366.409 468.454 384.381 C 468.349 384.442 475.789 401.959 478.393 407.106 C 480.737 413.021 482.746 428.92 487.066 436.935" style="stroke: rgb(0, 0, 0); fill: none;"/>
<path d="M 456.104 392.926 C 454.944 392.506 451.991 389.747 450.818 387.235 C 445.513 374.688 460.052 368.876 465.421 381.757 L 468.583 389.293 C 468.091 391.122 458.295 393.674 456.104 392.926 Z" style="stroke: rgb(0, 0, 0); fill: none;"/>
<path d="M 464.874 410.685 C 467.219 409.006 473.48 407.939 476.291 408.485" style="stroke: rgb(0, 0, 0); fill: none;"/>
<path style="stroke: rgb(0, 0, 0); fill: none;" d="M 458.832 392.637 C 457.026 387.633 466.437 384.119 468.311 389.303"/>
<path d="M 450.542 454.725 L 406.043 454.725 C 402.729 454.725 400.043 452.039 400.043 448.725 L 400.043 308.279 C 400.043 304.965 402.729 302.279 406.043 302.279 L 471.235 302.279 C 474.549 302.279 477.235 304.965 477.235 308.279 L 477.17 404.265" style="stroke: rgb(0, 0, 0); fill: none;"/>
<line style="stroke: rgb(0, 0, 0);" x1="438.582" y1="322.29" x2="438.696" y2="313.342"/>
<g transform="matrix(1, 0, 0, 1, 0, 2)">
<rect x="404.639" y="397.362" width="8" height="8" rx="2" ry="2" style="fill: none; stroke: rgb(0, 0, 0);"/>
<rect x="414.639" y="397.362" width="8" height="8" rx="2" ry="2" style="fill: none; stroke: rgb(0, 0, 0);"/>
<rect x="424.639" y="397.362" width="8" height="8" rx="2" ry="2" style="fill: none; stroke: rgb(0, 0, 0);"/>
<rect x="434.639" y="397.362" width="8" height="8" rx="2" ry="2" style="fill: none; stroke: rgb(0, 0, 0);"/>
<path d="M 446.639 397.362 L 448.04 397.362 C 448.733 399.917 449.623 402.834 450.626 405.362 L 446.639 405.362 C 445.534 405.362 444.639 404.467 444.639 403.362 L 444.639 399.362 C 444.639 398.257 445.534 397.362 446.639 397.362 Z" style="fill: none; stroke: rgb(0, 0, 0);"/>
<rect x="409.639" y="408.362" width="8" height="8" rx="2" ry="2" style="fill: none; stroke: rgb(0, 0, 0);"/>
<rect x="419.639" y="408.362" width="8" height="8" rx="2" ry="2" style="fill: none; stroke: rgb(0, 0, 0);"/>
<rect x="429.639" y="408.362" width="8" height="8" rx="2" ry="2" style="fill: none; stroke: rgb(0, 0, 0);"/>
<rect x="439.639" y="408.362" width="8" height="8" rx="2" ry="2" style="fill: none; stroke: rgb(0, 0, 0);"/>
<path d="M 451.639 408.362 L 451.985 408.362 C 453.088 410.447 454.273 411.797 455.452 411.626 C 454.602 412.852 454.293 414.493 454.257 416.362 L 451.639 416.362 C 450.534 416.362 449.639 415.467 449.639 414.362 L 449.639 410.362 C 449.639 409.257 450.534 408.362 451.639 408.362 Z" style="fill: none; stroke: rgb(0, 0, 0);"/>
<rect x="404.639" y="419.362" width="8" height="8" rx="2" ry="2" style="fill: none; stroke: rgb(0, 0, 0);"/>
<rect x="414.639" y="419.362" width="8" height="8" rx="2" ry="2" style="fill: none; stroke: rgb(0, 0, 0);"/>
<rect x="424.639" y="419.362" width="8" height="8" rx="2" ry="2" style="fill: none; stroke: rgb(0, 0, 0);"/>
<rect x="434.639" y="419.362" width="8" height="8" rx="2" ry="2" style="fill: none; stroke: rgb(0, 0, 0);"/>
<rect x="444.639" y="419.362" width="8" height="8" rx="2" ry="2" style="fill: none; stroke: rgb(0, 0, 0);"/>
<rect x="404.639" y="430.362" width="8" height="8" rx="2" ry="2" style="fill: none; stroke: rgb(0, 0, 0);"/>
<rect x="414.639" y="430.362" width="8" height="8" rx="2" ry="2" style="fill: none; stroke: rgb(0, 0, 0);"/>
<rect x="424.639" y="430.362" width="27" height="8" rx="2" ry="2" style="fill: none; stroke: rgb(0, 0, 0);"/>
</g>
<g transform="matrix(1, 0, 0, 1, -360, -658)">
<rect x="404.639" y="397.362" width="8" height="8" rx="2" ry="2" style="fill: none; stroke: rgb(0, 0, 0);"/>
<rect x="414.639" y="397.362" width="8" height="8" rx="2" ry="2" style="fill: none; stroke: rgb(0, 0, 0);"/>
<rect x="424.639" y="397.362" width="8" height="8" rx="2" ry="2" style="fill: none; stroke: rgb(0, 0, 0);"/>
<rect x="434.639" y="397.362" width="8" height="8" rx="2" ry="2" style="fill: none; stroke: rgb(0, 0, 0);"/>
<rect x="444.639" y="397.362" width="8" height="8" rx="2" ry="2" style="fill: none; stroke: rgb(0, 0, 0);"/>
<rect x="454.639" y="397.362" width="8" height="8" rx="2" ry="2" style="fill: none; stroke: rgb(0, 0, 0);"/>
<rect x="464.639" y="397.362" width="8" height="8" rx="2" ry="2" style="fill: none; stroke: rgb(0, 0, 0);"/>
<rect x="409.639" y="408.362" width="8" height="8" rx="2" ry="2" style="fill: none; stroke: rgb(0, 0, 0);"/>
<rect x="419.639" y="408.362" width="8" height="8" rx="2" ry="2" style="fill: none; stroke: rgb(0, 0, 0);"/>
<rect x="429.639" y="408.362" width="8" height="8" rx="2" ry="2" style="fill: none; stroke: rgb(0, 0, 0);"/>
<rect x="439.639" y="408.362" width="8" height="8" rx="2" ry="2" style="fill: none; stroke: rgb(0, 0, 0);"/>
<rect x="449.639" y="408.362" width="8" height="8" rx="2" ry="2" style="fill: none; stroke: rgb(0, 0, 0);"/>
<rect x="459.639" y="408.362" width="8" height="8" rx="2" ry="2" style="fill: none; stroke: rgb(0, 0, 0);"/>
<rect x="404.639" y="419.362" width="8" height="8" rx="2" ry="2" style="fill: none; stroke: rgb(0, 0, 0);"/>
<rect x="414.639" y="419.362" width="8" height="8" rx="2" ry="2" style="fill: none; stroke: rgb(0, 0, 0);"/>
<rect x="424.639" y="419.362" width="8" height="8" rx="2" ry="2" style="fill: none; stroke: rgb(0, 0, 0);"/>
<rect x="434.639" y="419.362" width="8" height="8" rx="2" ry="2" style="fill: none; stroke: rgb(0, 0, 0);"/>
<rect x="444.639" y="419.362" width="8" height="8" rx="2" ry="2" style="fill: none; stroke: rgb(0, 0, 0);"/>
<rect x="454.639" y="419.362" width="8" height="8" rx="2" ry="2" style="fill: none; stroke: rgb(0, 0, 0);"/>
<rect x="464.639" y="419.362" width="8" height="8" rx="2" ry="2" style="fill: none; stroke: rgb(0, 0, 0);"/>
<rect x="404.639" y="430.362" width="8" height="8" rx="2" ry="2" style="fill: none; stroke: rgb(0, 0, 0);"/>
<rect x="414.639" y="430.362" width="8" height="8" rx="2" ry="2" style="fill: none; stroke: rgb(0, 0, 0);"/>
<rect x="424.639" y="430.362" width="27" height="8" rx="2" ry="2" style="fill: none; stroke: rgb(0, 0, 0);"/>
<rect x="454.639" y="430.362" width="8" height="8" rx="2" ry="2" style="fill: none; stroke: rgb(0, 0, 0);"/>
<rect x="464.639" y="430.362" width="8" height="8" rx="2" ry="2" style="fill: none; stroke: rgb(0, 0, 0);"/>
</g>
<circle style="stroke: rgb(0, 0, 0); fill: none;" cx="53.139" cy="597.197" r="6.569"/>
<circle style="stroke: rgb(0, 0, 0); fill: none;" cx="70.139" cy="597.197" r="6.569"/>
<path d="M 93.708 597.197 C 93.708 599.032 92.955 600.692 91.742 601.884 C 88.045 599.702 84.407 599.412 81.405 600.405 C 80.873 599.456 80.57 598.362 80.57 597.197 C 80.57 593.569 83.511 590.628 87.139 590.628 C 90.767 590.628 93.708 593.569 93.708 597.197 Z" style="stroke: rgb(0, 0, 0); fill: none;"/>
<circle style="stroke: rgb(0, 0, 0); fill: none;" cx="104.139" cy="597.197" r="6.569"/>
<circle style="stroke: rgb(0, 0, 0); fill: none;" cx="53.139" cy="615.197" r="6.569"/>
<path d="M 70.139 621.766 C 66.511 621.766 63.57 618.825 63.57 615.197 C 63.57 611.569 66.511 608.628 70.139 608.628 C 71.642 608.628 73.027 609.133 74.134 609.982 C 73.971 612.435 74.57 615.132 76.158 617.833 C 75.142 620.148 72.83 621.766 70.139 621.766 Z" style="stroke: rgb(0, 0, 0); fill: none;"/>
<path d="M 87.139 639.766 C 83.511 639.766 80.57 636.825 80.57 633.197 C 80.57 630.787 81.867 628.681 83.802 627.538 C 86.637 630.846 90.231 634.633 92.966 636.233 C 91.869 638.333 89.672 639.766 87.139 639.766 Z" style="stroke: rgb(0, 0, 0); fill: none;"/>
<path d="M 110.708 615.197 C 110.708 616.145 110.507 617.046 110.146 617.86 C 107.23 615.358 103.633 612.178 100.732 609.579 C 101.726 608.976 102.892 608.628 104.139 608.628 C 107.767 608.628 110.708 611.569 110.708 615.197 Z" style="stroke: rgb(0, 0, 0); fill: none;"/>
<circle style="stroke: rgb(0, 0, 0); fill: none;" cx="53.139" cy="633.197" r="6.569"/>
<circle style="stroke: rgb(0, 0, 0); fill: none;" cx="70.139" cy="633.197" r="6.569"/>
<g transform="matrix(1, 0, 0, 1, -360, 262)">
<rect x="404.639" y="397.362" width="8" height="8" rx="2" ry="2" style="fill: none; stroke: rgb(0, 0, 0);"/>
<rect x="414.639" y="397.362" width="8" height="8" rx="2" ry="2" style="fill: none; stroke: rgb(0, 0, 0);"/>
<rect x="424.639" y="397.362" width="8" height="8" rx="2" ry="2" style="fill: none; stroke: rgb(0, 0, 0);"/>
<rect x="434.639" y="397.362" width="8" height="8" rx="2" ry="2" style="fill: none; stroke: rgb(0, 0, 0);"/>
<rect x="444.639" y="397.362" width="8" height="8" rx="2" ry="2" style="fill: none; stroke: rgb(0, 0, 0);"/>
<rect x="454.639" y="397.362" width="8" height="8" rx="2" ry="2" style="fill: none; stroke: rgb(0, 0, 0);"/>
<path d="M 464.639 403.362 L 464.639 399.362 C 464.639 399.242 464.65 399.124 464.67 399.01 C 465.019 400.856 465.706 403.037 466.628 405.362 C 465.528 405.356 464.639 404.463 464.639 403.362 Z" style="fill: none; stroke: rgb(0, 0, 0);"/>
<rect x="409.639" y="408.362" width="8" height="8" rx="2" ry="2" style="fill: none; stroke: rgb(0, 0, 0);"/>
<rect x="419.639" y="408.362" width="8" height="8" rx="2" ry="2" style="fill: none; stroke: rgb(0, 0, 0);"/>
<rect x="429.639" y="408.362" width="8" height="8" rx="2" ry="2" style="fill: none; stroke: rgb(0, 0, 0);"/>
<rect x="439.639" y="408.362" width="8" height="8" rx="2" ry="2" style="fill: none; stroke: rgb(0, 0, 0);"/>
<rect x="449.639" y="408.362" width="8" height="8" rx="2" ry="2" style="fill: none; stroke: rgb(0, 0, 0);"/>
<rect x="459.639" y="408.362" width="8" height="8" rx="2" ry="2" style="fill: none; stroke: rgb(0, 0, 0);"/>
<rect x="404.639" y="419.362" width="8" height="8" rx="2" ry="2" style="fill: none; stroke: rgb(0, 0, 0);"/>
<rect x="414.639" y="419.362" width="8" height="8" rx="2" ry="2" style="fill: none; stroke: rgb(0, 0, 0);"/>
<rect x="424.639" y="419.362" width="8" height="8" rx="2" ry="2" style="fill: none; stroke: rgb(0, 0, 0);"/>
<rect x="434.639" y="419.362" width="8" height="8" rx="2" ry="2" style="fill: none; stroke: rgb(0, 0, 0);"/>
<rect x="444.639" y="419.362" width="8" height="8" rx="2" ry="2" style="fill: none; stroke: rgb(0, 0, 0);"/>
<rect x="454.639" y="419.362" width="8" height="8" rx="2" ry="2" style="fill: none; stroke: rgb(0, 0, 0);"/>
<rect x="464.639" y="419.362" width="8" height="8" rx="2" ry="2" style="fill: none; stroke: rgb(0, 0, 0);"/>
<rect x="404.639" y="430.362" width="8" height="8" rx="2" ry="2" style="fill: none; stroke: rgb(0, 0, 0);"/>
<rect x="414.639" y="430.362" width="8" height="8" rx="2" ry="2" style="fill: none; stroke: rgb(0, 0, 0);"/>
<rect x="424.639" y="430.362" width="27" height="8" rx="2" ry="2" style="fill: none; stroke: rgb(0, 0, 0);"/>
<rect x="454.639" y="430.362" width="8" height="8" rx="2" ry="2" style="fill: none; stroke: rgb(0, 0, 0);"/>
<rect x="464.639" y="430.362" width="8" height="8" rx="2" ry="2" style="fill: none; stroke: rgb(0, 0, 0);"/>
</g>
<rect width="160" height="240" style="fill: none; stroke: rgb(204, 204, 204);" y="520"/>
<path d="M 121.035 689.167 C 114.234 684.562 103.931 665.208 104.428 658.069 C 104.918 651.079 95.057 642.713 96.075 636.769 C 92.37 639.201 79.69 622.585 79.179 621.722 C 65.79 608.078 81.607 591.415 95.488 604.769 C 95.418 604.868 109.57 617.595 114.105 621.158 C 118.731 625.526 121.191 631.672 128.496 637.107" style="stroke: rgb(0, 0, 0); fill: none;"/>
<path d="M 87.911 617.737 C 86.682 617.846 82.84 616.595 80.714 614.815 C 70.6 605.689 81.317 594.273 91.629 603.675 L 97.682 609.166 C 98.011 611.032 90.212 617.488 87.911 617.737 Z" style="stroke: rgb(0, 0, 0); fill: none;"/>
<path d="M 103.37 630.119 C 104.785 627.605 110.007 623.99 112.785 623.295" style="stroke: rgb(0, 0, 0); fill: none;"/>
<path style="stroke: rgb(0, 0, 0); fill: none;" d="M 90.261 616.321 C 86.508 612.55 93.55 605.386 97.441 609.29"/>
<line style="stroke: rgb(0, 0, 0);" x1="78.582" y1="582.29" x2="78.696" y2="573.342"/>
<path d="M 117.235 685.773 L 117.235 708.725 C 117.235 712.039 114.549 714.725 111.235 714.725 L 46.043 714.725 C 42.729 714.725 40.043 712.039 40.043 708.725 L 40.043 568.279 C 40.043 564.965 42.729 562.279 46.043 562.279 L 111.235 562.279 C 114.549 562.279 117.235 564.965 117.235 568.279 L 117.235 624.787" style="stroke: rgb(0, 0, 0); fill: none;"/>
<circle style="stroke: rgb(0, 0, 0); fill: none;" cx="233.139" cy="597.197" r="6.569"/>
<circle style="stroke: rgb(0, 0, 0); fill: none;" cx="250.139" cy="597.197" r="6.569"/>
<circle style="stroke: rgb(0, 0, 0); fill: none;" cx="267.139" cy="597.197" r="6.569"/>
<circle style="stroke: rgb(0, 0, 0); fill: none;" cx="284.139" cy="597.197" r="6.569"/>
<circle style="stroke: rgb(0, 0, 0); fill: none;" cx="233.139" cy="615.197" r="6.569"/>
<circle style="stroke: rgb(0, 0, 0); fill: none;" cx="250.139" cy="615.197" r="6.569"/>
<circle style="stroke: rgb(0, 0, 0); fill: none;" cx="284.139" cy="615.197" r="6.569"/>
<circle style="stroke: rgb(0, 0, 0); fill: none;" cx="233.139" cy="633.197" r="6.569"/>
<path d="M 243.57 633.197 C 243.57 629.86 246.059 627.104 249.281 626.683 C 246.589 630.143 246.142 635.197 248.981 639.664 C 245.906 639.118 243.57 636.43 243.57 633.197 Z" style="stroke: rgb(0, 0, 0); fill: none;"/>
<g transform="matrix(1, 0, 0, 1, -180, 262)">
<rect x="404.639" y="397.362" width="8" height="8" rx="2" ry="2" style="fill: none; stroke: rgb(0, 0, 0);"/>
<rect x="414.639" y="397.362" width="8" height="8" rx="2" ry="2" style="fill: none; stroke: rgb(0, 0, 0);"/>
<rect x="424.639" y="397.362" width="8" height="8" rx="2" ry="2" style="fill: none; stroke: rgb(0, 0, 0);"/>
<rect x="434.639" y="397.362" width="8" height="8" rx="2" ry="2" style="fill: none; stroke: rgb(0, 0, 0);"/>
<rect x="444.639" y="397.362" width="8" height="8" rx="2" ry="2" style="fill: none; stroke: rgb(0, 0, 0);"/>
<path d="M 456.639 397.362 L 458.648 397.362 C 459.798 398.766 461.255 400.14 462.639 401.317 L 462.639 403.362 C 462.639 404.467 461.744 405.362 460.639 405.362 L 456.639 405.362 C 455.534 405.362 454.639 404.467 454.639 403.362 L 454.639 399.362 C 454.639 398.257 455.534 397.362 456.639 397.362 Z" style="fill: none; stroke: rgb(0, 0, 0);"/>
<path d="M 466.639 405.362 C 465.534 405.362 464.639 404.467 464.639 403.362 L 464.639 402.935 C 466.115 404.073 467.196 404.793 467.196 404.793 C 467.183 404.974 467.176 405.164 467.173 405.362 Z" style="fill: none; stroke: rgb(0, 0, 0);"/>
<rect x="409.639" y="408.362" width="8" height="8" rx="2" ry="2" style="fill: none; stroke: rgb(0, 0, 0);"/>
<rect x="419.639" y="408.362" width="8" height="8" rx="2" ry="2" style="fill: none; stroke: rgb(0, 0, 0);"/>
<rect x="429.639" y="408.362" width="8" height="8" rx="2" ry="2" style="fill: none; stroke: rgb(0, 0, 0);"/>
<rect x="439.639" y="408.362" width="8" height="8" rx="2" ry="2" style="fill: none; stroke: rgb(0, 0, 0);"/>
<rect x="449.639" y="408.362" width="8" height="8" rx="2" ry="2" style="fill: none; stroke: rgb(0, 0, 0);"/>
<rect x="459.639" y="408.362" width="8" height="8" rx="2" ry="2" style="fill: none; stroke: rgb(0, 0, 0);"/>
<rect x="404.639" y="419.362" width="8" height="8" rx="2" ry="2" style="fill: none; stroke: rgb(0, 0, 0);"/>
<rect x="414.639" y="419.362" width="8" height="8" rx="2" ry="2" style="fill: none; stroke: rgb(0, 0, 0);"/>
<rect x="424.639" y="419.362" width="8" height="8" rx="2" ry="2" style="fill: none; stroke: rgb(0, 0, 0);"/>
<rect x="434.639" y="419.362" width="8" height="8" rx="2" ry="2" style="fill: none; stroke: rgb(0, 0, 0);"/>
<rect x="444.639" y="419.362" width="8" height="8" rx="2" ry="2" style="fill: none; stroke: rgb(0, 0, 0);"/>
<rect x="454.639" y="419.362" width="8" height="8" rx="2" ry="2" style="fill: none; stroke: rgb(0, 0, 0);"/>
<path d="M 466.639 419.362 L 470.328 419.362 C 471.021 421.303 471.801 423.25 472.639 425.105 L 472.639 425.362 C 472.639 426.467 471.744 427.362 470.639 427.362 L 466.639 427.362 C 465.534 427.362 464.639 426.467 464.639 425.362 L 464.639 421.362 C 464.639 420.257 465.534 419.362 466.639 419.362 Z" style="fill: none; stroke: rgb(0, 0, 0);"/>
<rect x="404.639" y="430.362" width="8" height="8" rx="2" ry="2" style="fill: none; stroke: rgb(0, 0, 0);"/>
<rect x="414.639" y="430.362" width="8" height="8" rx="2" ry="2" style="fill: none; stroke: rgb(0, 0, 0);"/>
<rect x="424.639" y="430.362" width="27" height="8" rx="2" ry="2" style="fill: none; stroke: rgb(0, 0, 0);"/>
<rect x="454.639" y="430.362" width="8" height="8" rx="2" ry="2" style="fill: none; stroke: rgb(0, 0, 0);"/>
<rect x="464.639" y="430.362" width="8" height="8" rx="2" ry="2" style="fill: none; stroke: rgb(0, 0, 0);"/>
</g>
<circle style="stroke: rgb(0, 0, 0); fill: none;" cx="267.139" cy="615.197" r="6.569"/>
<path d="M 290.708 633.197 C 290.708 633.899 290.598 634.575 290.394 635.209 C 289.877 634.914 289.366 634.646 288.862 634.405 C 286.676 633.595 282.537 631.84 278.383 630.028 C 279.502 628.001 281.66 626.628 284.139 626.628 C 287.767 626.628 290.708 629.569 290.708 633.197 Z" style="stroke: rgb(0, 0, 0); fill: none;"/>
<rect width="160" height="240" style="fill: none; stroke: rgb(204, 204, 204);" y="520" x="180"/>
<path d="M 301.101 698.739 C 294.552 695.932 286.68 674.062 287.196 666.793 C 287.196 666.793 276.44 659.629 276.472 654.783 C 273.688 658.232 256.533 646.291 255.783 645.626 C 238.861 636.732 248.823 616.029 266.124 624.496 C 266.088 624.612 283.454 632.4 288.862 634.405 C 292.983 636.374 297.575 640.195 302.034 645.245" style="stroke: rgb(0, 0, 0); fill: none;"/>
<path d="M 262.877 639.161 C 261.74 639.641 257.7 639.626 255.131 638.581 C 242.71 632.987 249.421 618.839 262.115 624.636 L 269.558 628.012 C 270.441 629.688 264.992 638.22 262.877 639.161 Z" style="stroke: rgb(0, 0, 0); fill: none;"/>
<path d="M 281.383 646.219 C 281.961 643.393 285.827 638.354 288.259 636.843" style="stroke: rgb(0, 0, 0); fill: none;"/>
<path style="stroke: rgb(0, 0, 0); fill: none;" d="M 264.681 637.093 C 259.954 634.651 264.466 625.677 269.365 628.203"/>
<line style="stroke: rgb(0, 0, 0);" x1="258.582" y1="582.29" x2="258.696" y2="573.342"/>
<path d="M 226.043 562.279 L 291.235 562.279 C 294.549 562.279 297.235 564.965 297.235 568.279 L 297.235 640.123 M 297.235 695.254 L 297.235 708.725 C 297.235 712.039 294.549 714.725 291.235 714.725 L 226.043 714.725 C 222.729 714.725 220.043 712.039 220.043 708.725 L 220.043 568.279 C 220.043 564.965 222.729 562.279 226.043 562.279" style="stroke: rgb(0, 0, 0); fill: none;"/>
<rect width="160" height="240" style="fill: none; stroke: rgb(204, 204, 204);" y="520" x="360"/>
<path d="M 480.936 696.73 C 474.798 695.55 468.882 684.015 467.952 675.834 C 467.952 675.834 456.814 672.875 454.256 667.174 C 453.156 671.467 432.592 667.73 431.633 667.436 C 412.545 666.373 413.009 643.404 432.264 643.92 C 432.28 644.041 451.312 643.913 457.065 643.491 C 464.269 642.009 479.256 652.434 483.881 653.254" style="stroke: rgb(0, 0, 0); fill: none;"/>
<path d="M 435.401 658.609 C 434.566 659.517 430.883 661.181 428.114 661.297 C 414.491 661.367 414.72 645.71 428.676 645.711 L 436.848 645.692 C 438.347 646.849 436.934 656.874 435.401 658.609 Z" style="stroke: rgb(0, 0, 0); fill: none;"/>
<path d="M 455.167 657.344 C 454.519 654.533 455.943 648.344 457.528 645.959" style="stroke: rgb(0, 0, 0); fill: none;"/>
<path style="stroke: rgb(0, 0, 0); fill: none;" d="M 436.183 655.979 C 430.869 655.72 431.247 645.683 436.752 645.946"/>
<path d="M 406.043 562.279 L 471.235 562.279 C 474.549 562.279 477.235 564.965 477.235 568.279 L 477.235 650.307 M 477.235 694.861 L 477.235 708.725 C 477.235 712.039 474.549 714.725 471.235 714.725 L 406.043 714.725 C 402.729 714.725 400.043 712.039 400.043 708.725 L 400.043 568.279 C 400.043 564.965 402.729 562.279 406.043 562.279" style="stroke: rgb(0, 0, 0); fill: none;"/>
<path d="M 477.177 703.935 C 471.223 702.034 466.72 689.877 466.77 681.644 C 466.77 681.644 456.063 677.381 454.201 671.416 C 452.598 675.548 432.624 669.393 431.707 668.987 C 427.577 668.257 424.506 666.593 422.43 664.468 C 424.699 666.105 427.765 667.221 431.633 667.436 C 432.592 667.73 453.156 671.467 454.256 667.174 C 456.814 672.875 467.952 675.834 467.952 675.834 C 468.688 682.306 472.544 690.877 477.161 694.759 Z" style="fill: url(#pattern-0);"/>
<path d="M 296.821 711.314 C 290.845 707.434 283.264 681.418 285.008 674.343 C 285.008 674.343 275.627 665.454 276.483 660.684 C 273.153 663.61 258.278 648.926 257.652 648.143 C 256.186 647.018 254.987 645.827 254.03 644.603 C 254.579 644.958 255.163 645.3 255.783 645.626 C 256.533 646.291 273.688 658.232 276.472 654.783 C 276.44 659.629 287.196 666.793 287.196 666.793 C 286.747 673.121 291.596 689.2 297.453 695.449 L 296.821 711.314 Z" style="fill: url(#pattern-0);"/>
<path d="M 117.337 701.706 C 111.211 696.235 100.022 670.853 101.466 663.844 C 102.883 656.982 94.226 647.376 96.027 641.621 C 92.132 643.489 82.196 626.28 81.336 624.558 C 85.23 629.43 93.254 638.621 96.075 636.769 C 95.057 642.713 104.918 651.079 104.428 658.069 C 103.956 664.856 111.682 679.117 117.29 685.669 L 117.337 701.706 Z" style="fill: url(#pattern-0);"/>
<circle style="stroke: rgb(0, 0, 0); fill: none;" cx="53.139" cy="857.197" r="6.569"/>
<circle style="stroke: rgb(0, 0, 0); fill: none;" cx="70.139" cy="857.197" r="6.569"/>
<circle style="stroke: rgb(0, 0, 0); fill: none;" cx="53.139" cy="875.197" r="6.569"/>
<circle style="stroke: rgb(0, 0, 0); fill: none;" cx="53.139" cy="893.197" r="6.569"/>
<circle style="stroke: rgb(0, 0, 0); fill: none;" cx="70.139" cy="893.197" r="6.569"/>
<rect width="160" height="240" style="fill: none; stroke: rgb(204, 204, 204);" y="780"/>
<path d="M 122.852 943.331 C 117.141 937.428 111.028 916.372 112.979 909.487 C 114.893 902.746 106.958 892.535 109.174 886.926 C 105.049 888.546 96.048 869.682 95.725 868.733 C 85.42 852.632 104.32 839.569 115.165 855.487 C 115.076 855.569 126.316 870.929 130.024 875.347 C 133.655 880.571 134.802 887.091 140.836 893.909" style="stroke: rgb(0, 0, 0); fill: none;"/>
<path d="M 105.088 866.624 C 103.863 866.478 100.36 864.466 98.644 862.287 C 90.618 851.28 103.449 842.306 111.612 853.624 L 116.41 860.24 C 116.349 862.134 107.391 866.852 105.088 866.624 Z" style="stroke: rgb(0, 0, 0); fill: none;"/>
<path d="M 117.678 881.915 C 119.579 879.744 125.431 877.278 128.293 877.167" style="stroke: rgb(0, 0, 0); fill: none;"/>
<path style="stroke: rgb(0, 0, 0); fill: none;" d="M 107.68 865.72 C 104.78 861.259 113.142 855.693 116.15 860.312"/>
<line style="stroke: rgb(0, 0, 0);" x1="78.582" y1="842.29" x2="78.696" y2="833.342"/>
<path d="M 87.139 863.766 C 83.511 863.766 80.57 860.825 80.57 857.197 C 80.57 853.569 83.511 850.628 87.139 850.628 C 90.141 850.628 92.673 852.642 93.457 855.392 C 92.897 856.939 92.645 858.68 92.787 860.554 C 91.641 862.477 89.541 863.766 87.139 863.766 Z" style="stroke: rgb(0, 0, 0); fill: none;"/>
<circle style="stroke: rgb(0, 0, 0); fill: none;" cx="70.139" cy="875.197" r="6.569"/>
<path d="M 97.57 875.197 C 97.57 874.494 97.681 873.816 97.885 873.181 C 99.214 875.734 101.008 878.95 102.849 881.639 C 99.839 881.04 97.57 878.384 97.57 875.197 Z" style="stroke: rgb(0, 0, 0); fill: none;"/>
<circle style="stroke: rgb(0, 0, 0); fill: none;" cx="87.139" cy="875.197" r="6.569"/>
<circle style="stroke: rgb(0, 0, 0); fill: none;" cx="53.139" cy="911.197" r="6.569"/>
<circle style="stroke: rgb(0, 0, 0); fill: none;" cx="70.139" cy="911.197" r="6.569"/>
<circle style="stroke: rgb(0, 0, 0); fill: none;" cx="53.139" cy="929.197" r="6.569"/>
<circle style="stroke: rgb(0, 0, 0); fill: none;" cx="87.139" cy="911.197" r="6.569"/>
<circle style="stroke: rgb(0, 0, 0); fill: none;" cx="70.139" cy="929.197" r="6.569"/>
<circle style="stroke: rgb(0, 0, 0); fill: none;" cx="104.139" cy="929.197" r="6.569"/>
<circle style="stroke: rgb(0, 0, 0); fill: none;" cx="87.139" cy="929.197" r="6.569"/>
<circle style="stroke: rgb(0, 0, 0); fill: none;" cx="53.139" cy="947.197" r="6.569"/>
<circle style="stroke: rgb(0, 0, 0); fill: none;" cx="70.139" cy="947.197" r="6.569"/>
<circle style="stroke: rgb(0, 0, 0); fill: none;" cx="104.139" cy="947.197" r="6.569"/>
<circle style="stroke: rgb(0, 0, 0); fill: none;" cx="87.139" cy="947.197" r="6.569"/>
<path d="M 104.139 899.766 C 100.511 899.766 97.57 896.825 97.57 893.197 C 97.57 889.569 100.511 886.628 104.139 886.628 C 105.964 886.628 107.615 887.372 108.805 888.574 C 108.635 890.632 109.331 893.092 110.221 895.683 C 109.241 898.079 106.887 899.766 104.139 899.766 Z" style="stroke: rgb(0, 0, 0); fill: none;"/>
<circle style="stroke: rgb(0, 0, 0); fill: none;" cx="87.139" cy="893.197" r="6.569"/>
<circle style="stroke: rgb(0, 0, 0); fill: none;" cx="104.139" cy="911.197" r="6.569"/>
<rect width="160" height="240" style="fill: none; stroke: rgb(204, 204, 204);" y="780" x="180"/>
<path d="M 302.852 943.331 C 297.141 937.428 291.028 916.372 292.979 909.487 C 294.893 902.746 286.958 892.535 289.174 886.926 C 285.049 888.546 276.048 869.682 275.725 868.733 C 265.42 852.632 284.32 839.569 295.165 855.487 C 295.076 855.569 306.316 870.929 310.024 875.347 C 313.655 880.571 314.802 887.091 320.836 893.909" style="stroke: rgb(0, 0, 0); fill: none;"/>
<path d="M 285.088 866.624 C 283.863 866.478 280.36 864.466 278.644 862.287 C 270.618 851.28 283.449 842.306 291.612 853.624 L 296.41 860.24 C 296.349 862.134 287.391 866.852 285.088 866.624 Z" style="stroke: rgb(0, 0, 0); fill: none;"/>
<path d="M 297.678 881.915 C 299.579 879.744 305.431 877.278 308.293 877.167" style="stroke: rgb(0, 0, 0); fill: none;"/>
<path style="stroke: rgb(0, 0, 0); fill: none;" d="M 287.68 865.72 C 284.78 861.259 293.142 855.693 296.15 860.312"/>
<path d="M 297.235 933.321 L 297.235 968.725 C 297.235 972.039 294.549 974.725 291.235 974.725 L 226.043 974.725 C 222.729 974.725 220.043 972.039 220.043 968.725 L 220.043 828.279 C 220.043 824.965 222.729 822.279 226.043 822.279 L 291.235 822.279 C 294.549 822.279 297.235 824.965 297.235 828.279 L 297.235 858.201" style="stroke: rgb(0, 0, 0); fill: none;"/>
<circle style="stroke: rgb(0, 0, 0); fill: none;" cx="235.722" cy="882.339" r="5.877"/>
<circle style="stroke: rgb(0, 0, 0); fill: none;" cx="264.811" cy="911.428" r="5.877"/>
<circle style="stroke: rgb(0, 0, 0); fill: none;" cx="240.632" cy="906.518" r="2.901"/>
<circle style="stroke: rgb(0, 0, 0); fill: none;" cx="235.052" cy="897.295" r="4.389"/>
<circle style="stroke: rgb(0, 0, 0); fill: none;" cx="277.755" cy="897.367" r="7.439"/>
<circle style="stroke: rgb(0, 0, 0); fill: none;" cx="249.856" cy="912.098" r="4.389"/>
<circle style="stroke: rgb(0, 0, 0); fill: none;" cx="249.782" cy="869.395" r="7.439"/>
<path d="M 117.235 933.321 L 117.235 968.725 C 117.235 972.039 114.549 974.725 111.235 974.725 L 46.043 974.725 C 42.729 974.725 40.043 972.039 40.043 968.725 L 40.043 828.279 C 40.043 824.965 42.729 822.279 46.043 822.279 L 111.235 822.279 C 114.549 822.279 117.235 824.965 117.235 828.279 L 117.235 858.201" style="stroke: rgb(0, 0, 0); fill: none;"/>
<path d="M 117.316 955.564 C 112.442 948.953 105.407 920.623 108.259 914.059 C 111.054 907.634 104.552 896.456 107.496 891.193 C 103.192 892.248 96.787 872.352 96.593 871.368 C 96.094 870.295 105.049 888.546 109.174 886.926 C 106.958 892.535 114.893 902.746 112.979 909.487 C 111.7 914.001 117.156 933.042 117.156 933.042 L 117.316 955.564 Z" style="fill: url(#pattern-0);"/>
<path d="M 297.316 955.564 C 292.442 948.953 285.407 920.623 288.259 914.059 C 291.054 907.634 284.552 896.456 287.496 891.193 C 283.192 892.248 276.787 872.352 276.593 871.368 C 276.094 870.295 285.049 888.546 289.174 886.926 C 286.958 892.535 294.893 902.746 292.979 909.487 C 291.7 914.001 297.156 933.042 297.156 933.042 L 297.316 955.564 Z" style="fill: url(#pattern-0);"/>
<rect width="160" height="240" style="fill: none; stroke: rgb(204, 204, 204);" x="-180"/>
<rect width="160" height="240" style="fill: none; stroke: rgb(204, 204, 204);" x="-360"/>
<path d="M 83.67 455.383 C 83.77 449.25 84.675 440.671 87.009 436.462 C 90.408 430.335 85.012 418.583 88.448 413.628 C 84.062 414.264 79.6 393.844 79.502 392.847 C 75.628 381.871 82.039 374.461 89.211 374.399 C 89.211 374.399 96.504 373.984 94.439 374.282 C 87.872 375.228 82.886 382.592 86.505 392.846 C 86.603 393.844 91.065 414.263 95.451 413.627 C 92.015 418.582 97.412 430.334 94.012 436.461 C 91.689 440.649 90.783 449.166 90.675 455.292 L 83.67 455.383 Z" style="fill: url(#pattern-0);"/>
</svg>